<svg width="24" height="24" viewBox="0 0 24 24" fill="none" xmlns="http://www.w3.org/2000/svg">
<g id="copyright">
<path id="Vector" d="M12 22C17.5228 22 22 17.5228 22 12C22 6.47715 17.5228 2 12 2C6.47715 2 2 6.47715 2 12C2 17.5228 6.47715 22 12 22Z" stroke="#154449" stroke-width="2" stroke-linecap="round" stroke-linejoin="round"/>
<path id="Vector_2" d="M15.0004 9.40044C14.4659 8.78508 13.7562 8.34769 12.9663 8.14682C12.1763 7.94594 11.3439 7.99118 10.5804 8.27646C9.8169 8.56175 9.15877 9.07347 8.69411 9.74312C8.22946 10.4128 7.98047 11.2084 7.98047 12.0234C7.98047 12.8385 8.22946 13.6341 8.69411 14.3038C9.15877 14.9734 9.8169 15.4851 10.5804 15.7704C11.3439 16.0557 12.1763 16.1009 12.9663 15.9001C13.7562 15.6992 14.4659 15.2618 15.0004 14.6464" stroke="#154449" stroke-width="2" stroke-linecap="round" stroke-linejoin="round"/>
</g>
</svg>
