<svg width="39" height="30" viewBox="0 0 39 30" fill="none" xmlns="http://www.w3.org/2000/svg">
<path d="M33.0151 2.48684C30.5294 1.33579 27.8639 0.487746 25.0768 0.00203748C25.0261 -0.00733654 24.9754 0.0160897 24.9492 0.0629432C24.6064 0.678276 24.2267 1.48103 23.9608 2.11199C20.9632 1.65908 17.9809 1.65908 15.0448 2.11199C14.7788 1.467 14.3853 0.678276 14.0409 0.0629432C14.0148 0.0176529 13.9641 -0.00577328 13.9133 0.00203748C11.1279 0.486194 8.46229 1.33424 5.97502 2.48684C5.95349 2.4962 5.93503 2.51184 5.92278 2.53213C0.866762 10.1552 -0.518294 17.5909 0.161168 24.9344C0.164242 24.9703 0.184226 25.0047 0.211897 25.0265C3.54771 27.4988 6.77902 28.9997 9.95033 29.9945C10.0011 30.0102 10.0549 29.9914 10.0872 29.9492C10.8373 28.9154 11.506 27.8253 12.0794 26.6789C12.1132 26.6117 12.0809 26.5321 12.0118 26.5055C10.9511 26.0995 9.9411 25.6044 8.96956 25.0422C8.89271 24.9969 8.88656 24.8859 8.95726 24.8328C9.16171 24.6782 9.36621 24.5173 9.56143 24.3549C9.59675 24.3253 9.64596 24.319 9.68749 24.3377C16.0701 27.2786 22.98 27.2786 29.2873 24.3377C29.3288 24.3175 29.378 24.3237 29.4149 24.3534C29.6102 24.5158 29.8146 24.6782 30.0206 24.8328C30.0913 24.8859 30.0867 24.9969 30.0098 25.0422C29.0383 25.6153 28.0283 26.0995 26.9661 26.504C26.8969 26.5305 26.8662 26.6117 26.9 26.6789C27.4857 27.8236 28.1544 28.9138 28.8907 29.9477C28.9215 29.9914 28.9768 30.0102 29.0275 29.9945C32.2142 28.9997 35.4455 27.4988 38.7813 25.0265C38.8105 25.0047 38.829 24.9719 38.8321 24.9359C39.6453 16.446 37.47 9.07133 33.0658 2.53368C33.0551 2.51184 33.0367 2.4962 33.0151 2.48684ZM13.0325 20.463C11.1109 20.463 9.52759 18.6826 9.52759 16.496C9.52759 14.3095 11.0802 12.5291 13.0325 12.5291C15.0002 12.5291 16.5682 14.3252 16.5374 16.496C16.5374 18.6826 14.9848 20.463 13.0325 20.463ZM25.9915 20.463C24.0699 20.463 22.4866 18.6826 22.4866 16.496C22.4866 14.3095 24.0392 12.5291 25.9915 12.5291C27.9592 12.5291 29.5271 14.3252 29.4964 16.496C29.4964 18.6826 27.9592 20.463 25.9915 20.463Z" fill="#4B04A0"/>
</svg>
