<svg width="31" height="35" viewBox="0 0 31 35" fill="none" xmlns="http://www.w3.org/2000/svg">
<path id="Exclude" fill-rule="evenodd" clip-rule="evenodd" d="M22.9474 33.8933C20.8055 34.5781 18.5215 34.9427 16.1521 34.9309C13.781 34.919 11.4993 34.5311 9.36314 33.824C10.3509 33.9474 10.7194 33.3057 10.7222 32.7501C10.7234 32.5082 10.7214 32.0816 10.7187 31.5108C10.7156 30.8504 10.7116 29.9971 10.7106 29.0138C4.59648 30.3109 3.32938 26.0314 3.32938 26.0314C2.34449 23.489 0.908464 22.8062 0.908464 22.8062C-1.07848 21.4326 1.06608 21.471 1.06608 21.471C3.26764 21.6373 4.41658 23.7521 4.41658 23.7521C6.35926 27.1192 9.54342 26.1658 10.7977 25.6089C11.0037 24.1902 11.5766 23.2247 12.2065 22.6787C7.33391 22.0997 2.21827 20.1901 2.26035 11.7715C2.27234 9.37258 3.137 7.41625 4.54979 5.88666C4.32616 5.32956 3.584 3.09302 4.79291 0.0739681C4.79291 0.0739681 6.64005 -0.507319 10.8192 2.35607C12.5739 1.87724 14.4522 1.64386 16.3198 1.64328C18.1845 1.66217 20.0618 1.91467 21.813 2.41102C26.0178 -0.410461 27.855 0.189242 27.855 0.189242C29.0377 3.22025 28.2733 5.44926 28.0441 6.0041C29.4442 7.54775 30.2838 9.5126 30.2718 11.9115C30.2296 20.3506 25.0871 22.183 20.1939 22.7022C20.9782 23.3845 21.674 24.728 21.6638 26.7782C21.654 28.7422 21.6331 30.4519 21.6194 31.5848C21.6125 32.1462 21.6074 32.5659 21.6062 32.8049C21.6034 33.3631 21.9566 34.0097 22.9474 33.8933Z" fill="#154449"/>
</svg>
