<svg width="34" height="39" viewBox="0 0 34 39" fill="none" xmlns="http://www.w3.org/2000/svg">
<path fill-rule="evenodd" clip-rule="evenodd" d="M25.1275 37.1119C22.7823 37.8617 20.2814 38.2609 17.6869 38.2479C15.0908 38.235 12.5924 37.8102 10.2534 37.036C11.335 37.1711 11.7384 36.4685 11.7414 35.8601C11.7427 35.5953 11.7406 35.1281 11.7376 34.5031C11.7343 33.78 11.7299 32.8456 11.7288 31.7689C5.03404 33.1893 3.64661 28.5034 3.64661 28.5034C2.5682 25.7196 0.995804 24.9719 0.995804 24.9719C-1.17983 23.4679 1.16839 23.5099 1.16839 23.5099C3.57901 23.692 4.83705 26.0076 4.83705 26.0076C6.96421 29.6945 10.4507 28.6505 11.8241 28.0407C12.0497 26.4873 12.677 25.4301 13.3667 24.8323C8.03142 24.1983 2.42999 22.1074 2.47607 12.8894C2.4892 10.2626 3.43597 8.12051 4.98291 6.44567C4.73805 5.83566 3.92541 3.38674 5.24912 0.0809922C5.24912 0.0809922 7.27167 -0.555495 11.8477 2.57981C13.769 2.05551 15.8257 1.79996 17.8706 1.79932C19.9124 1.82001 21.968 2.09649 23.8855 2.63998C28.4896 -0.449439 30.5012 0.207212 30.5012 0.207212C31.7963 3.52605 30.9592 5.96673 30.7083 6.57425C32.2414 8.26449 33.1607 10.4159 33.1475 13.0427C33.1014 22.2831 27.4704 24.2895 22.1127 24.858C22.9714 25.6051 23.7333 27.0762 23.7221 29.3211C23.7113 31.4716 23.6885 33.3437 23.6734 34.5842C23.6659 35.1988 23.6603 35.6584 23.659 35.9201C23.656 36.5313 24.0427 37.2393 25.1275 37.1119Z" fill="#4B04A0"/>
</svg>
