<svg width="30" height="31" viewBox="0 0 30 31" fill="none" xmlns="http://www.w3.org/2000/svg">
<g id="Instagram" clip-path="url(#clip0_1902_11112)">
<rect width="30" height="30" transform="translate(0 0.5)" fill="#F7F9FB"/>
<path id="Vector" fill-rule="evenodd" clip-rule="evenodd" d="M15 0.5C10.9262 0.5 10.4156 0.517498 8.81561 0.589998C7.21874 0.663123 6.12812 0.916872 5.17437 1.2875C4.18812 1.67062 3.35124 2.18375 2.51812 3.0175C1.68374 3.85125 1.17063 4.68813 0.787506 5.67438C0.416881 6.62875 0.162508 7.71875 0.0900078 9.31562C0.0175078 10.9156 0 11.4262 0 15.5C0 19.5737 0.0175078 20.0844 0.0900078 21.6844C0.163133 23.2813 0.416881 24.3719 0.787506 25.3256C1.17063 26.3119 1.68376 27.1487 2.51751 27.9819C3.35126 28.8162 4.18812 29.3294 5.17437 29.7131C6.12874 30.0831 7.21874 30.3369 8.81561 30.41C10.4156 30.4825 10.9262 30.5 15 30.5C19.0737 30.5 19.5844 30.4825 21.1844 30.41C22.7813 30.3369 23.8719 30.0831 24.8256 29.7125C25.8119 29.3294 26.6488 28.8162 27.4819 27.9825C28.3163 27.1488 28.8294 26.3119 29.2131 25.3256C29.5831 24.3712 29.8369 23.2813 29.91 21.6844C29.9825 20.0844 30 19.5737 30 15.5C30 11.4262 29.9825 10.9156 29.91 9.31562C29.8369 7.71875 29.5831 6.62813 29.2125 5.67438C28.8294 4.68813 28.3162 3.85125 27.4825 3.01813C26.6487 2.18375 25.8119 1.67062 24.8256 1.2875C23.8713 0.916872 22.7813 0.662498 21.1844 0.589998C19.5844 0.517498 19.0737 0.5 15 0.5ZM15 3.2025C19.005 3.2025 19.4794 3.21813 21.0612 3.29C22.5237 3.35688 23.3175 3.60125 23.8469 3.80688C24.5469 4.07875 25.0469 4.40375 25.5719 4.92875C26.0962 5.45375 26.4212 5.95375 26.6931 6.65375C26.8994 7.18187 27.1431 7.97625 27.21 9.43875C27.2819 11.02 27.2975 11.495 27.2975 15.5C27.2975 19.505 27.2819 19.9794 27.21 21.5612C27.1431 23.0237 26.8987 23.8175 26.6931 24.3469C26.4212 25.0469 26.0963 25.5469 25.5713 26.0719C25.0463 26.5962 24.5462 26.9212 23.8462 27.1931C23.3181 27.3994 22.5237 27.6431 21.0612 27.71C19.48 27.7819 19.005 27.7975 15 27.7975C10.9944 27.7975 10.52 27.7819 8.93875 27.71C7.47625 27.6431 6.6825 27.3988 6.15313 27.1931C5.45313 26.9212 4.95312 26.5963 4.42812 26.0713C3.90374 25.5463 3.57874 25.0463 3.30687 24.3463C3.10062 23.8181 2.85687 23.0237 2.78999 21.5612C2.71812 19.98 2.7025 19.505 2.7025 15.5C2.7025 11.495 2.71812 11.0206 2.78999 9.43875C2.85687 7.97625 3.10124 7.1825 3.30687 6.65313C3.57874 5.95313 3.90375 5.45313 4.42875 4.92813C4.95375 4.40375 5.45376 4.07875 6.15376 3.80688C6.68188 3.60063 7.47625 3.35688 8.93875 3.29C10.52 3.21813 10.995 3.2025 15 3.2025ZM15 7.7975C10.7456 7.7975 7.2975 11.2456 7.2975 15.5C7.2975 19.7544 10.7456 23.2025 15 23.2025C19.2544 23.2025 22.7025 19.7544 22.7025 15.5C22.7025 11.2456 19.2544 7.7975 15 7.7975ZM15 20.5C13.6739 20.5 12.4021 19.9732 11.4645 19.0355C10.5268 18.0979 10 16.8261 10 15.5C10 14.1739 10.5268 12.9021 11.4645 11.9645C12.4021 11.0268 13.6739 10.5 15 10.5C16.3261 10.5 17.5979 11.0268 18.5355 11.9645C19.4732 12.9021 20 14.1739 20 15.5C20 16.8261 19.4732 18.0979 18.5355 19.0355C17.5979 19.9732 16.3261 20.5 15 20.5ZM24.8069 7.49312C24.8069 7.97051 24.6172 8.42835 24.2797 8.76591C23.9421 9.10348 23.4842 9.29313 23.0069 9.29313C22.5295 9.29313 22.0717 9.10348 21.7341 8.76591C21.3965 8.42835 21.2069 7.97051 21.2069 7.49312C21.2069 7.01573 21.3965 6.55789 21.7341 6.22033C22.0717 5.88276 22.5295 5.69313 23.0069 5.69313C23.4842 5.69313 23.9421 5.88276 24.2797 6.22033C24.6172 6.55789 24.8069 7.01573 24.8069 7.49312Z" fill="#154449"/>
</g>
<defs>
<clipPath id="clip0_1902_11112">
<rect width="30" height="30" fill="white" transform="translate(0 0.5)"/>
</clipPath>
</defs>
</svg>
