<svg width="33" height="33" viewBox="0 0 33 33" fill="none" xmlns="http://www.w3.org/2000/svg">
<g id="Linkedin">
<rect width="33" height="33" fill="#F7F9FB"/>
<path id="Vector" d="M28.9987 1.85059H3.68669C2.4746 1.85059 1.49219 2.80297 1.49219 3.97843V29.4218C1.49219 30.5972 2.47493 31.5506 3.68669 31.5506H28.9987C30.2108 31.5506 31.1919 30.5969 31.1919 29.4218V3.97843C31.1919 2.8033 30.2108 1.85059 28.9987 1.85059ZM10.4962 26.7115H6.0089V13.3022H10.4962V26.7115ZM8.2529 11.4704H8.22287C6.71807 11.4704 5.74259 10.4411 5.74259 9.15283C5.74259 7.83844 6.74678 6.83722 8.28128 6.83722C9.81611 6.83722 10.7602 7.83811 10.7899 9.15283C10.7899 10.4415 9.81644 11.4704 8.2529 11.4704ZM26.6722 26.7115H22.1862V19.5373C22.1862 17.7341 21.5361 16.5042 19.9138 16.5042C18.6726 16.5042 17.9361 17.3342 17.6127 18.1351C17.4926 18.4215 17.4632 18.8215 17.4632 19.2215V26.7111H12.9778C12.9778 26.7111 13.0366 14.5595 12.9778 13.3019H17.4635V15.203C18.0592 14.2896 19.1231 12.9864 21.5057 12.9864C24.4582 12.9864 26.6722 14.9018 26.6722 19.0225V26.7115ZM17.4345 15.2456C17.4424 15.2331 17.453 15.2179 17.4635 15.2034V15.2456H17.4345Z" fill="#154449"/>
</g>
</svg>
