<svg width="791" height="791" viewBox="0 0 791 791" fill="none" xmlns="http://www.w3.org/2000/svg">
<path d="M711.742 630.411H659.346V630.807H711.742V630.411Z" fill="#B6C5C7"/>
<path d="M523.99 634.714H510.242V635.109H523.99V634.714Z" fill="#B6C5C7"/>
<path d="M657.764 615.73H627.405V616.125H657.764V615.73Z" fill="#B6C5C7"/>
<path d="M151.319 618.388H82.9922V618.783H151.319V618.388Z" fill="#B6C5C7"/>
<path d="M175.428 618.388H165.414V618.783H175.428V618.388Z" fill="#B6C5C7"/>
<path d="M356.187 625.063H207.985V625.459H356.187V625.063Z" fill="#B6C5C7"/>
<path d="M377.149 534.399H71.6651C69.2693 534.399 66.9717 533.448 65.2776 531.754C63.5835 530.06 62.6318 527.762 62.6318 525.366V95.9639C62.6527 93.5819 63.6136 91.3045 65.3054 89.6275C66.9972 87.9505 69.2829 87.0097 71.6651 87.0098H377.149C378.336 87.0098 379.51 87.2434 380.606 87.6974C381.702 88.1513 382.698 88.8167 383.537 89.6555C384.376 90.4943 385.041 91.4902 385.495 92.5861C385.949 93.6821 386.182 94.8567 386.182 96.043V525.366C386.182 526.552 385.949 527.727 385.495 528.823C385.041 529.919 384.376 530.915 383.537 531.754C382.698 532.592 381.702 533.258 380.606 533.712C379.51 534.166 378.336 534.399 377.149 534.399ZM71.6651 87.3262C69.3755 87.3303 67.1809 88.2417 65.5619 89.8607C63.9429 91.4797 63.0315 93.6743 63.0273 95.9639V525.366C63.0315 527.656 63.9429 529.85 65.5619 531.469C67.1809 533.088 69.3755 534 71.6651 534.004H377.149C379.439 534 381.633 533.088 383.252 531.469C384.871 529.85 385.783 527.656 385.787 525.366V95.9639C385.783 93.6743 384.871 91.4797 383.252 89.8607C381.633 88.2417 379.439 87.3303 377.149 87.3262H71.6651Z" fill="#B6C5C7"/>
<path d="M719.336 534.399H413.852C411.456 534.399 409.158 533.448 407.464 531.754C405.77 530.06 404.818 527.762 404.818 525.366V95.9639C404.839 93.5819 405.8 91.3045 407.492 89.6275C409.184 87.9505 411.469 87.0097 413.852 87.0098H719.336C721.732 87.0098 724.029 87.9615 725.723 89.6555C727.417 91.3496 728.369 93.6472 728.369 96.043V525.366C728.369 527.762 727.417 530.06 725.723 531.754C724.029 533.448 721.732 534.399 719.336 534.399ZM413.852 87.3262C411.562 87.3303 409.367 88.2417 407.748 89.8607C406.129 91.4797 405.218 93.6743 405.214 95.9639V525.366C405.218 527.656 406.129 529.85 407.748 531.469C409.367 533.088 411.562 534 413.852 534.004H719.336C721.625 534 723.82 533.088 725.439 531.469C727.058 529.85 727.969 527.656 727.974 525.366V95.9639C727.969 93.6743 727.058 91.4797 725.439 89.8607C723.82 88.2417 721.625 87.3303 719.336 87.3262H413.852Z" fill="#B6C5C7"/>
<path d="M791 604.957H0V605.352H791V604.957Z" fill="#B6C5C7"/>
<path d="M553.811 595.765H704.386V395.405H553.811V595.765Z" fill="#F5F5F5"/>
<path d="M525.081 595.765H553.811V395.405H525.081V595.765Z" fill="#E6E6E6"/>
<path d="M563.588 458.938H693.834V410.276H563.588V458.938Z" fill="#FAFAFA"/>
<path d="M645.693 410.275L645.124 416.762C645.036 417.795 644.563 418.758 643.798 419.459C643.033 420.159 642.032 420.546 640.995 420.543H616.426C615.389 420.546 614.388 420.159 613.623 419.459C612.858 418.758 612.385 417.795 612.297 416.762L611.728 410.275H645.693Z" fill="#B6C5C7"/>
<path d="M563.588 512.9H693.834V464.238H563.588V512.9Z" fill="#FAFAFA"/>
<path d="M645.693 464.253L645.124 470.74C645.033 471.772 644.558 472.733 643.794 473.433C643.03 474.132 642.031 474.521 640.995 474.521H616.426C615.39 474.521 614.391 474.132 613.627 473.433C612.862 472.733 612.388 471.772 612.297 470.74L611.728 464.253H645.693Z" fill="#B6C5C7"/>
<path d="M563.588 566.878H693.834V518.216H563.588V566.878Z" fill="#FAFAFA"/>
<path d="M645.693 518.215L645.124 524.702C645.036 525.735 644.563 526.698 643.798 527.399C643.033 528.099 642.032 528.486 640.995 528.482H616.426C615.389 528.486 614.388 528.099 613.623 527.399C612.858 526.698 612.385 525.735 612.297 524.702L611.728 518.215H645.693Z" fill="#B6C5C7"/>
<path d="M563.588 605.779H692.252L693.834 595.75H563.588V605.779Z" fill="#E6E6E6"/>
<path d="M536.693 605.779H563.587V595.75H535.111L536.693 605.779Z" fill="#B6C5C7"/>
<path d="M624.067 395.626H675.482L669.787 330.432H618.372L624.067 395.626Z" fill="#FAFAFA"/>
<path d="M624.067 395.626H621.615L615.904 330.432H618.372L624.067 395.626Z" fill="#B6C5C7"/>
<path d="M628.735 388.982H669.661L665.121 337.077H624.194L628.735 388.982Z" fill="#F0F0F0"/>
<path d="M631.725 384.711H665.912L662.131 341.348H627.928L631.725 384.711Z" fill="#E6E6E6"/>
<path d="M609.624 395.626L613.152 355.27H561.974L558.446 395.626H609.624Z" fill="#F0F0F0"/>
<path d="M609.624 395.626L613.152 355.27H615.905L612.377 395.626H609.624Z" fill="#B6C5C7"/>
<path d="M604.767 391.513L607.583 359.383H566.831L564.015 391.513H604.767Z" fill="#B6C5C7"/>
<path d="M601.65 388.871L603.991 362.041H569.947L567.605 388.871H601.65Z" fill="#F5F5F5"/>
<path d="M491.433 578.648C491.433 589.342 489.756 596.256 486.94 600.701C485.856 602.329 484.383 603.66 482.653 604.572C480.923 605.484 478.992 605.948 477.037 605.922H461.549C459.593 605.948 457.663 605.484 455.933 604.572C454.203 603.66 452.729 602.329 451.645 600.701C448.829 596.256 447.137 589.342 447.137 578.648C447.137 563.128 453.908 550.71 456.122 540.806C456.913 537.231 454.256 526.284 454.256 526.284H484.314C484.314 526.284 481.672 537.231 482.463 540.806C484.678 550.71 491.433 563.192 491.433 578.648Z" fill="#B6C5C7"/>
<path d="M542.626 515.874C542.626 502.396 521.506 507.964 516.191 487.098C514.166 479.188 531.346 461.264 531.346 461.264H477.764C477.764 461.264 494.945 479.188 492.92 487.098C487.604 507.996 466.484 502.396 466.484 515.874C466.484 530.698 496.273 561.594 497.713 596.366C497.84 599.53 492.113 605.858 492.113 605.858H516.982C516.982 605.858 511.239 599.404 511.382 596.366C512.837 561.61 542.626 530.698 542.626 515.874Z" fill="#F5F5F5"/>
<path d="M526.442 550.868C529.606 544.319 523.12 522.076 523.12 522.076H546.328C546.328 522.076 539.889 544.319 543.006 550.868C545.205 555.487 550.188 558.446 550.188 563.904V596.762C550.188 605.273 543.227 605.922 534.716 605.922C526.205 605.922 519.244 605.273 519.244 596.762V563.904C519.244 558.446 524.243 555.487 526.442 550.868Z" fill="#F0F0F0"/>
<path d="M261.267 356.788C247.946 351.014 240.337 338.832 244.324 329.625C248.31 320.418 262.39 317.634 275.726 323.408C289.063 329.182 296.656 341.364 292.67 350.571C288.683 359.778 274.603 362.562 261.267 356.788ZM271.882 332.22C265.554 329.514 259.036 330.812 257.169 335.131C255.303 339.449 258.862 345.145 265.079 347.787C271.297 350.428 277.925 349.195 279.792 344.876C281.659 340.557 278.131 334.988 271.882 332.22Z" fill="#E6E6E6"/>
<path d="M276.961 332.789L270.633 330.052L308.917 241.555C309.096 241.138 309.356 240.761 309.682 240.445C310.007 240.129 310.392 239.881 310.814 239.714C311.237 239.548 311.688 239.467 312.141 239.476C312.595 239.485 313.042 239.584 313.458 239.768C313.873 239.947 314.248 240.206 314.563 240.53C314.878 240.855 315.125 241.238 315.291 241.659C315.457 242.079 315.539 242.528 315.531 242.98C315.523 243.432 315.426 243.878 315.245 244.292L276.961 332.789Z" fill="#E6E6E6"/>
<path d="M318.171 252.851L306.006 247.536L308.759 241.208L320.908 246.523L318.171 252.851Z" fill="#E6E6E6"/>
<path d="M312.176 259.938L303.475 256.157L306.211 249.813L314.912 253.594L312.176 259.938Z" fill="#E6E6E6"/>
<path d="M302.666 261.903L299.926 268.232L309.682 272.456L312.422 266.126L302.666 261.903Z" fill="#E6E6E6"/>
<path d="M279.413 323.345L275.933 321.842C275.101 321.477 274.448 320.798 274.116 319.953C273.784 319.108 273.8 318.166 274.161 317.333C274.522 316.499 275.2 315.842 276.045 315.507C276.891 315.172 277.834 315.186 278.669 315.545L282.15 317.048C282.981 317.413 283.635 318.092 283.967 318.937C284.299 319.782 284.283 320.724 283.922 321.557C283.56 322.391 282.882 323.048 282.037 323.383C281.192 323.719 280.248 323.705 279.413 323.345Z" fill="#E6E6E6"/>
<path d="M551.279 292.923C555.248 295.428 558.379 299.06 560.273 303.354C562.167 307.648 562.739 312.409 561.914 317.03C561.089 321.65 558.905 325.919 555.642 329.292C552.379 332.665 548.184 334.989 543.594 335.967C539.004 336.944 534.226 336.531 529.872 334.78C525.517 333.029 521.784 330.02 519.148 326.137C516.512 322.253 515.094 317.673 515.074 312.979C515.055 308.286 516.435 303.694 519.038 299.789C522.407 294.608 527.694 290.976 533.739 289.689C539.783 288.401 546.091 289.565 551.279 292.923ZM532.058 321.763C533.859 323.03 535.998 323.732 538.2 323.779C540.402 323.825 542.568 323.213 544.421 322.022C546.274 320.83 547.729 319.114 548.601 317.091C549.473 315.068 549.722 312.831 549.316 310.666C548.91 308.501 547.868 306.506 546.322 304.937C544.777 303.367 542.798 302.294 540.64 301.855C538.481 301.416 536.241 301.631 534.205 302.471C532.169 303.312 530.43 304.741 529.21 306.575C527.575 308.967 526.957 311.911 527.491 314.758C528.025 317.606 529.667 320.125 532.058 321.763Z" fill="#E6E6E6"/>
<path d="M529.511 318.947L536.061 323.313L489.202 395.009C488.623 395.877 487.722 396.479 486.699 396.684C485.676 396.889 484.613 396.679 483.744 396.101C483.315 395.815 482.946 395.448 482.659 395.02C482.372 394.592 482.172 394.111 482.071 393.606C481.969 393.101 481.969 392.58 482.068 392.075C482.168 391.569 482.367 391.088 482.653 390.659L529.511 318.947Z" fill="#E6E6E6"/>
<path d="M482.953 375.013L496.748 384.267L489.867 394.598L476.056 385.327C475.106 384.687 474.448 383.698 474.226 382.574C474.004 381.451 474.235 380.285 474.869 379.332L476.942 376.168C477.59 375.222 478.584 374.57 479.71 374.354C480.836 374.138 482.001 374.375 482.953 375.013Z" fill="#E6E6E6"/>
<path d="M359.968 155.922L352.691 174.747C352.535 175.151 352.301 175.521 352.003 175.835C351.704 176.148 351.347 176.4 350.951 176.576C350.555 176.751 350.128 176.847 349.695 176.858C349.262 176.868 348.831 176.794 348.427 176.638C348.023 176.482 347.654 176.248 347.34 175.95C347.027 175.651 346.775 175.294 346.599 174.898C346.424 174.502 346.328 174.075 346.317 173.642C346.306 173.209 346.381 172.778 346.537 172.374L353.814 153.549C354.939 150.622 354.859 147.368 353.589 144.501C352.32 141.633 349.966 139.386 347.043 138.251L340.304 135.64C337.381 134.513 334.131 134.59 331.264 135.853C328.397 137.115 326.147 139.462 325.006 142.38L322.032 150.068L315.894 147.695L318.868 140.007C319.738 137.75 321.044 135.688 322.712 133.936C324.38 132.185 326.376 130.779 328.587 129.799C330.798 128.82 333.18 128.285 335.598 128.226C338.015 128.167 340.421 128.584 342.677 129.455L349.416 132.049C351.677 132.923 353.744 134.233 355.498 135.906C357.253 137.579 358.66 139.581 359.64 141.798C360.62 144.015 361.153 146.404 361.21 148.827C361.266 151.251 360.844 153.661 359.968 155.922Z" fill="#F0F0F0"/>
<path d="M358.813 158.88C358.311 158.235 357.644 157.738 356.883 157.44L320.181 143.202C319.066 142.783 317.831 142.818 316.742 143.3C315.653 143.783 314.797 144.673 314.359 145.781L300.121 182.499C299.693 183.611 299.724 184.847 300.208 185.936C300.692 187.025 301.588 187.877 302.7 188.305L339.402 202.543C339.953 202.757 340.542 202.861 341.133 202.847C341.725 202.833 342.308 202.703 342.848 202.463C343.389 202.224 343.878 201.88 344.285 201.451C344.693 201.022 345.012 200.517 345.224 199.965L359.462 163.262C359.743 162.538 359.831 161.753 359.717 160.985C359.604 160.217 359.292 159.491 358.813 158.88ZM330.938 187.245L319.311 182.752L325.465 172.011C324.988 171.049 324.758 169.983 324.797 168.91C324.835 167.837 325.141 166.791 325.686 165.866C326.231 164.941 326.998 164.167 327.918 163.613C328.837 163.059 329.881 162.744 330.953 162.695C332.026 162.646 333.093 162.865 334.06 163.333C335.026 163.801 335.86 164.502 336.487 165.374C337.114 166.245 337.513 167.26 337.649 168.325C337.786 169.389 337.654 170.472 337.266 171.473C336.949 172.309 336.457 173.069 335.825 173.701C335.192 174.334 334.432 174.825 333.596 175.143L330.938 187.245Z" fill="#E6E6E6"/>
<path d="M109.395 584.485H402.271V426.871H109.395V584.485Z" fill="#E6E6E6"/>
<path d="M378.795 604.941H397.209V591.035H378.795V604.941Z" fill="#E6E6E6"/>
<path d="M87.0416 604.941H105.456L105.456 415.148H87.0416L87.0416 604.941Z" fill="#E6E6E6"/>
<path d="M105.234 415.132V604.972H115.059V594.341H397.208V604.972H407.033V415.132H105.234ZM115.059 432.313H251.221V498.235H115.059V432.313ZM397.208 577.113H261.03V432.313H397.193L397.208 577.113ZM115.059 577.113V508.059H251.221V577.113H115.059Z" fill="#F0F0F0"/>
<path d="M261.03 577.129H388.001V439.416H261.03V577.129Z" fill="#F5F5F5"/>
<path d="M266.788 504.136C266.788 505.303 267.134 506.444 267.783 507.414C268.431 508.384 269.353 509.141 270.431 509.587C271.509 510.034 272.695 510.151 273.84 509.923C274.985 509.696 276.036 509.133 276.861 508.308C277.687 507.483 278.249 506.432 278.476 505.287C278.704 504.142 278.587 502.956 278.141 501.878C277.694 500.799 276.938 499.878 275.967 499.229C274.997 498.581 273.856 498.235 272.689 498.235C271.914 498.235 271.147 498.388 270.431 498.684C269.715 498.981 269.064 499.415 268.516 499.963C267.968 500.511 267.534 501.162 267.237 501.878C266.941 502.593 266.788 503.361 266.788 504.136Z" fill="#FAFAFA"/>
<path d="M272.689 510.037C273.817 510.033 274.92 509.706 275.867 509.095C276.815 508.484 277.568 507.614 278.036 506.588C278.398 507.355 278.587 508.192 278.59 509.04C278.59 510.605 277.968 512.106 276.861 513.213C275.755 514.319 274.254 514.941 272.689 514.941C271.124 514.941 269.623 514.319 268.516 513.213C267.41 512.106 266.788 510.605 266.788 509.04C266.791 508.192 266.98 507.355 267.342 506.588C267.81 507.614 268.563 508.484 269.511 509.095C270.458 509.706 271.561 510.033 272.689 510.037Z" fill="#B6C5C7"/>
<path d="M338.77 577.113H308.474L293.999 439.4H324.294L338.77 577.113Z" fill="#FAFAFA"/>
<path d="M300.722 577.113H294.695L280.22 439.4H286.247L300.722 577.113Z" fill="#FAFAFA"/>
<path d="M220.547 498.171H232.538V439.274H220.547V498.171Z" fill="#FAFAFA"/>
<path d="M170.793 498.171H182.784V439.274H170.793V498.171Z" fill="#F5F5F5"/>
<path d="M208.54 498.171H220.531V443.403H208.54V498.171Z" fill="#F5F5F5"/>
<path d="M182.784 498.171H194.775V443.403H182.784V498.171Z" fill="#FAFAFA"/>
<path d="M194.791 498.171H202.543V439.274H194.791V498.171Z" fill="#B6C5C7"/>
<path d="M202.528 498.171H208.523V443.403H202.528V498.171Z" fill="#FAFAFA"/>
<path d="M158.801 498.171H170.793V439.274H158.801V498.171Z" fill="#B6C5C7"/>
<path d="M146.794 498.171H158.785V443.403H146.794V498.171Z" fill="#E6E6E6"/>
<path d="M121.039 498.171H133.03V443.403H121.039V498.171Z" fill="#E6E6E6"/>
<path d="M133.046 498.171H140.798V439.274H133.046V498.171Z" fill="#FAFAFA"/>
<path d="M140.798 498.171H146.794V443.403H140.798V498.171Z" fill="#B6C5C7"/>
<path d="M115.043 498.171H121.039V440.666H115.043V498.171Z" fill="#B6C5C7"/>
<path d="M127.035 518.215H115.043V577.113H127.035V518.215Z" fill="#B6C5C7"/>
<path d="M176.773 518.215H164.781V577.113H176.773V518.215Z" fill="#FAFAFA"/>
<path d="M139.026 522.36H127.034V577.129H139.026V522.36Z" fill="#FAFAFA"/>
<path d="M164.782 522.36H152.79V577.129H164.782V522.36Z" fill="#B6C5C7"/>
<path d="M152.79 518.215H145.038V577.113H152.79V518.215Z" fill="#FAFAFA"/>
<path d="M145.038 522.36H139.042V577.129H145.038V522.36Z" fill="#F5F5F5"/>
<path d="M188.78 518.215H176.788V577.113H188.78V518.215Z" fill="#B6C5C7"/>
<path d="M200.772 522.36H188.78V577.129H200.772V522.36Z" fill="#F5F5F5"/>
<path d="M226.527 522.36H214.535V577.129H226.527V522.36Z" fill="#E6E6E6"/>
<path d="M214.535 518.215H206.783V577.113H214.535V518.215Z" fill="#FAFAFA"/>
<path d="M240.29 518.215H232.538V577.113H240.29V518.215Z" fill="#FAFAFA"/>
<path d="M206.783 522.36H200.787V577.129H206.783V522.36Z" fill="#B6C5C7"/>
<path d="M232.522 519.607H226.526V577.113H232.522V519.607Z" fill="#B6C5C7"/>
<path d="M128.427 313.694C127.183 314.306 126.157 315.283 125.484 316.494C124.566 318.361 127.43 321.826 127.43 321.826C128.12 322.287 128.909 322.581 129.733 322.682C130.558 322.784 131.394 322.691 132.176 322.411L134.549 321.335C134.549 321.335 130.483 314.264 128.506 314.185L128.427 313.694Z" fill="#E6E6E6"/>
<path d="M138.63 313.631C138.915 316.985 136.843 321.225 133.884 321.541C130.926 321.857 128.142 317.982 127.794 314.58C127.446 311.179 129.913 310.894 132.903 310.641C135.893 310.388 138.33 310.277 138.63 313.631Z" fill="#E6E6E6"/>
<path d="M129.851 312.65C129.851 312.65 132.145 314.47 136.859 313.41C136.859 313.41 129.424 318.361 129.851 312.65Z" fill="#E6E6E6"/>
<path d="M131.876 311.986C131.876 311.986 134.518 311.527 134.55 312.619C134.55 312.619 136.796 312.492 136.48 311.559C136.163 310.626 131.876 311.986 131.876 311.986Z" fill="#E6E6E6"/>
<g opacity="0.2">
<path d="M129.851 312.65C129.851 312.65 132.145 314.47 136.859 313.41C136.859 313.41 129.424 318.361 129.851 312.65Z" fill="#FAFAFA"/>
</g>
<g opacity="0.2">
<path d="M131.876 311.986C131.876 311.986 134.518 311.527 134.55 312.619C134.55 312.619 136.796 312.492 136.48 311.559C136.163 310.626 131.876 311.986 131.876 311.986Z" fill="#FAFAFA"/>
</g>
<path d="M128.822 322.538C129.333 323.303 130.049 323.908 130.889 324.284C131.729 324.659 132.658 324.788 133.568 324.658C134.468 324.522 135.33 324.201 136.098 323.713C136.866 323.225 137.524 322.583 138.03 321.826C139.016 320.3 139.564 318.532 139.612 316.716C139.612 316.257 139.612 315.134 139.058 314.897C138.504 314.66 138.14 315.53 137.887 315.893C137.149 316.955 136.306 317.941 135.372 318.836C134.448 319.723 133.423 320.498 132.318 321.146C132.002 321.241 128.996 322.807 128.822 322.538Z" fill="#E6E6E6"/>
<path d="M141.668 315.846C141.942 316.532 142.037 317.277 141.946 318.01C141.854 318.742 141.579 319.44 141.146 320.039C140.522 320.779 139.766 321.396 138.916 321.858C138.33 322.206 137.587 322.538 137.017 322.174C136.448 321.81 136.463 320.877 136.606 320.165C136.827 319.074 137.065 317.982 137.349 316.89C137.484 315.797 137.783 314.731 138.235 313.726C138.726 313.03 139.406 313.442 140.149 313.964C140.824 314.434 141.351 315.087 141.668 315.846Z" fill="#E6E6E6"/>
<g opacity="0.2">
<path d="M129.582 320.687C129.006 320.641 128.454 320.438 127.986 320.101C127.517 319.763 127.15 319.304 126.924 318.773C126.608 317.966 126.608 315.957 127.652 315.688C127.967 317.463 128.622 319.161 129.582 320.687Z" fill="#FAFAFA"/>
</g>
<g opacity="0.2">
<path d="M137.381 320.592C137.928 320.433 138.427 320.142 138.835 319.745C139.244 319.348 139.548 318.856 139.722 318.314C139.896 317.713 139.722 314.644 138.757 315.925C138.457 316.352 138.52 317.697 138.362 318.251C138.128 319.067 137.799 319.853 137.381 320.592Z" fill="#FAFAFA"/>
</g>
<g opacity="0.2">
<path d="M133.204 322.49C133.645 322.858 134.198 323.067 134.772 323.081C135.347 323.095 135.909 322.915 136.368 322.569C136.242 323.17 134.375 323.661 133.805 323.835C132.223 324.278 131.496 323.613 130.04 322.996C129.961 322.996 132.271 323.345 133.204 322.49Z" fill="#FAFAFA"/>
</g>
<path d="M130.594 384.11L130.736 338.469L133.077 324.595L133.963 324.737L131.638 338.548L131.464 384.98L130.594 384.11Z" fill="#B6C5C7"/>
<path d="M131.543 338.231L130.831 338.785C130.026 337.66 129.317 336.469 128.711 335.226C127.525 332.768 126.031 330.472 124.266 328.391L124.93 327.774C126.748 329.914 128.289 332.274 129.518 334.798C130.098 335.996 130.775 337.144 131.543 338.231Z" fill="#B6C5C7"/>
<path d="M132.097 332.109C133.321 331.777 134.387 331.02 135.103 329.973C135.813 328.731 136.265 327.359 136.432 325.939C134.85 326.414 133.157 325.654 131.528 325.844C130.877 325.925 130.253 326.153 129.705 326.513C129.156 326.872 128.698 327.352 128.364 327.917C127.51 329.388 127.162 331.081 127.921 331.729C129.211 332.394 130.709 332.53 132.097 332.109Z" fill="#E6E6E6"/>
<path d="M126.022 328.961C125.288 329.417 124.464 329.709 123.606 329.815C122.748 329.922 121.878 329.841 121.054 329.578C119.472 329.056 118.95 326.588 118.302 324.99C120.338 324.8 122.388 324.8 124.424 324.99C124.854 325.016 125.273 325.138 125.651 325.345C126.028 325.553 126.355 325.843 126.607 326.192C126.844 326.551 126.942 326.984 126.88 327.41C126.819 327.836 126.604 328.224 126.275 328.502L126.022 328.961Z" fill="#E6E6E6"/>
<path d="M118.539 331.634C119.192 330.984 119.979 330.485 120.845 330.17C121.711 329.856 122.636 329.735 123.554 329.815C124.289 329.95 124.981 330.257 125.575 330.711C126.169 331.165 126.647 331.752 126.971 332.425C126.725 332.894 126.357 333.289 125.906 333.567C125.455 333.845 124.938 333.997 124.408 334.007C123.329 334.024 122.257 333.841 121.244 333.469C120.234 333.088 119.16 332.9 118.08 332.916L118.539 331.634Z" fill="#E6E6E6"/>
<path d="M148.993 323.788C149.995 324.735 150.685 325.966 150.97 327.315C151.302 329.388 147.553 331.84 147.553 331.84C146.752 332.087 145.904 332.139 145.079 331.993C144.254 331.848 143.475 331.508 142.807 331.002L140.798 329.261C140.798 329.261 146.778 323.708 148.708 324.231L148.993 323.788Z" fill="#E6E6E6"/>
<path d="M139.216 320.734C137.966 323.898 138.71 328.502 141.494 329.625C144.279 330.748 148.044 327.932 149.309 324.879C150.575 321.826 148.392 320.671 145.544 319.564C142.697 318.456 140.513 317.618 139.216 320.734Z" fill="#E6E6E6"/>
<path d="M147.933 322.364C147.933 322.364 145.196 323.44 141.004 321.035C141.004 321.035 146.652 327.949 147.933 322.364Z" fill="#E6E6E6"/>
<path d="M146.192 321.146C146.192 321.146 143.804 319.927 143.44 320.972C143.44 320.972 141.336 320.196 141.858 319.39C142.38 318.583 146.192 321.146 146.192 321.146Z" fill="#E6E6E6"/>
<g opacity="0.2">
<path d="M147.933 322.364C147.933 322.364 145.196 323.44 141.004 321.035C141.004 321.035 146.652 327.949 147.933 322.364Z" fill="#FAFAFA"/>
</g>
<g opacity="0.2">
<path d="M146.192 321.146C146.192 321.146 143.804 319.927 143.44 320.972C143.44 320.972 141.336 320.196 141.858 319.39C142.38 318.583 146.192 321.146 146.192 321.146Z" fill="#FAFAFA"/>
</g>
<path d="M146.002 332.125C145.293 332.693 144.441 333.054 143.539 333.169C142.637 333.283 141.722 333.146 140.893 332.774C140.073 332.378 139.345 331.817 138.754 331.125C138.163 330.433 137.722 329.626 137.46 328.755C136.969 326.996 136.969 325.136 137.46 323.376C137.555 322.918 137.871 321.794 138.52 321.794C139.168 321.794 139.2 322.665 139.342 323.092C139.738 324.332 140.269 325.526 140.924 326.651C141.558 327.748 142.317 328.767 143.187 329.689C143.345 329.958 145.765 332.331 146.002 332.125Z" fill="#E6E6E6"/>
<path d="M135.704 321.953C135.235 322.522 134.921 323.203 134.794 323.929C134.666 324.656 134.729 325.403 134.976 326.098C135.336 326.998 135.874 327.816 136.558 328.502C137.001 329.008 137.618 329.546 138.266 329.356C138.915 329.167 139.168 328.281 139.247 327.569C139.358 326.446 139.453 325.338 139.5 324.215C139.666 323.14 139.666 322.047 139.5 320.972C139.247 320.149 138.456 320.339 137.602 320.624C136.856 320.878 136.198 321.339 135.704 321.953Z" fill="#E6E6E6"/>
<g opacity="0.2">
<path d="M145.829 330.116C146.401 330.267 147.004 330.249 147.566 330.063C148.128 329.878 148.624 329.534 148.993 329.072C149.515 328.407 150.1 326.477 149.199 325.908C148.354 327.512 147.21 328.941 145.829 330.116Z" fill="#FAFAFA"/>
</g>
<g opacity="0.2">
<path d="M138.394 327.742C137.912 327.434 137.516 327.011 137.24 326.511C136.963 326.011 136.816 325.45 136.812 324.879C136.812 324.246 137.935 321.383 138.394 322.886C138.552 323.376 138.093 324.642 138.093 325.211C138.097 326.064 138.198 326.913 138.394 327.742Z" fill="#FAFAFA"/>
</g>
<g opacity="0.2">
<path d="M141.827 330.78C141.312 330.989 140.742 331.021 140.207 330.873C139.672 330.724 139.201 330.402 138.868 329.958C138.868 330.559 140.45 331.54 140.941 331.919C142.254 332.789 143.203 332.378 144.785 332.22C144.785 332.22 142.475 331.888 141.827 330.78Z" fill="#FAFAFA"/>
</g>
<path d="M129.297 377.291L129.866 375.424L130.626 372.909L131.512 369.966L138.615 346.6L139.501 339.892L140.292 333.944L140.45 332.71L140.893 332.757V332.773L141.352 332.821L141.336 332.931L141.178 334.102L140.339 340.462L139.659 345.651L139.501 346.79L139.437 346.964L131.512 373.067L130.61 375.993L130.214 377.354L129.645 379.205L129.297 377.291Z" fill="#B6C5C7"/>
<path d="M138.789 346.331L139.311 347.059C140.407 346.215 141.434 345.284 142.38 344.275C144.255 342.268 146.382 340.514 148.708 339.054L148.249 338.279C145.879 339.778 143.714 341.581 141.811 343.642C140.87 344.61 139.86 345.509 138.789 346.331Z" fill="#B6C5C7"/>
<path d="M140.07 340.319C138.992 339.648 138.194 338.608 137.824 337.393C137.504 335.995 137.478 334.546 137.745 333.137C139.105 334.055 140.909 333.817 142.491 334.482C143.089 334.75 143.619 335.152 144.038 335.657C144.458 336.161 144.756 336.755 144.911 337.393C145.291 338.975 145.133 340.747 144.215 341.174C142.775 341.447 141.285 341.14 140.07 340.319Z" fill="#E6E6E6"/>
<path d="M146.793 339.086C147.358 339.738 148.058 340.261 148.845 340.616C149.632 340.971 150.486 341.151 151.349 341.142C153.074 341.142 154.26 338.896 155.336 337.551C153.452 336.767 151.497 336.163 149.499 335.748C149.08 335.646 148.645 335.638 148.223 335.726C147.802 335.813 147.405 335.994 147.062 336.254C146.726 336.525 146.502 336.91 146.431 337.336C146.361 337.762 146.451 338.199 146.683 338.564L146.793 339.086Z" fill="#E6E6E6"/>
<path d="M153.169 343.832C152.735 343.021 152.127 342.317 151.388 341.77C150.65 341.223 149.799 340.847 148.897 340.668C148.155 340.581 147.403 340.67 146.702 340.928C146.001 341.187 145.371 341.607 144.863 342.155C144.957 342.679 145.19 343.169 145.538 343.572C145.886 343.976 146.336 344.278 146.841 344.449C147.863 344.772 148.935 344.906 150.005 344.844C151.075 344.774 152.149 344.909 153.169 345.24V343.832Z" fill="#E6E6E6"/>
<path d="M116.942 321.953C115.837 322.785 115.009 323.932 114.569 325.243C113.999 327.252 117.432 330.132 117.432 330.132C118.189 330.462 119.013 330.61 119.837 330.563C120.662 330.516 121.463 330.276 122.178 329.863L124.33 328.36C124.33 328.36 119.062 322.142 117.1 322.427L116.942 321.953Z" fill="#E6E6E6"/>
<path d="M126.971 320.07C127.857 323.313 126.576 327.854 123.681 328.645C120.786 329.436 117.353 326.192 116.483 322.949C115.613 319.706 117.906 318.947 120.802 318.203C123.697 317.46 126.085 316.827 126.971 320.07Z" fill="#E6E6E6"/>
<path d="M118.159 320.671C118.159 320.671 120.738 322.063 125.183 320.165C125.183 320.165 118.776 326.382 118.159 320.671Z" fill="#E6E6E6"/>
<path d="M120.026 319.659C120.026 319.659 122.542 318.725 122.779 319.801C122.779 319.801 124.962 319.279 124.488 318.409C124.013 317.539 120.026 319.659 120.026 319.659Z" fill="#E6E6E6"/>
<g opacity="0.2">
<path d="M118.159 320.671C118.159 320.671 120.738 322.063 125.183 320.165C125.183 320.165 118.776 326.382 118.159 320.671Z" fill="#FAFAFA"/>
</g>
<g opacity="0.2">
<path d="M120.026 319.659C120.026 319.659 122.542 318.725 122.779 319.801C122.779 319.801 124.962 319.279 124.488 318.409C124.013 317.539 120.026 319.659 120.026 319.659Z" fill="#FAFAFA"/>
</g>
<path d="M118.919 330.638C119.556 331.287 120.36 331.746 121.242 331.967C122.125 332.188 123.051 332.16 123.918 331.888C124.78 331.59 125.57 331.118 126.24 330.5C126.91 329.882 127.444 329.132 127.81 328.297C128.53 326.618 128.771 324.773 128.506 322.965C128.506 322.506 128.284 321.383 127.636 321.273C126.987 321.162 126.845 322.064 126.655 322.475C126.124 323.652 125.472 324.771 124.709 325.813C123.952 326.831 123.075 327.755 122.099 328.566C121.814 328.74 119.14 330.828 118.919 330.638Z" fill="#E6E6E6"/>
<path d="M130.356 321.7C130.751 322.323 130.979 323.037 131.021 323.773C131.063 324.509 130.915 325.244 130.594 325.908C130.123 326.757 129.489 327.505 128.727 328.107C128.221 328.55 127.54 329.009 126.924 328.755C126.307 328.502 126.148 327.585 126.164 326.857C126.164 325.734 126.164 324.626 126.291 323.503C126.24 322.439 126.347 321.373 126.607 320.339C126.955 319.548 127.714 319.833 128.537 320.213C129.269 320.531 129.899 321.045 130.356 321.7Z" fill="#E6E6E6"/>
<g opacity="0.2">
<path d="M119.346 328.629C118.767 328.702 118.18 328.609 117.653 328.36C117.126 328.11 116.681 327.715 116.372 327.221C115.929 326.493 115.565 324.5 116.53 324.057C117.172 325.744 118.128 327.295 119.346 328.629Z" fill="#FAFAFA"/>
</g>
<g opacity="0.2">
<path d="M127.003 327.141C127.512 326.884 127.949 326.506 128.278 326.04C128.606 325.573 128.815 325.034 128.886 324.468C128.886 323.851 128.174 320.877 127.509 322.301C127.431 323.079 127.431 323.863 127.509 324.642C127.436 325.492 127.266 326.33 127.003 327.141Z" fill="#FAFAFA"/>
</g>
<g opacity="0.2">
<path d="M123.238 329.752C123.726 330.017 124.288 330.114 124.837 330.029C125.386 329.943 125.891 329.679 126.275 329.277C126.275 329.879 124.519 330.701 123.981 330.986C122.573 331.682 121.671 331.176 120.121 330.844C120.121 330.844 122.462 330.764 123.238 329.752Z" fill="#FAFAFA"/>
</g>
<path d="M131.734 390.849L123.665 345.92L123.476 331.84L124.377 331.824L124.567 345.841L132.746 391.545L131.734 390.849Z" fill="#B6C5C7"/>
<path d="M124.425 345.54L123.808 346.205C122.819 345.228 121.914 344.169 121.102 343.041C119.488 340.849 117.601 338.871 115.486 337.156L116.04 336.444C118.215 338.222 120.155 340.268 121.814 342.535C122.601 343.606 123.474 344.611 124.425 345.54Z" fill="#B6C5C7"/>
<path d="M123.854 339.418C125.005 338.878 125.922 337.94 126.433 336.776C126.915 335.428 127.115 333.996 127.018 332.568C125.547 333.327 123.744 332.868 122.178 333.343C121.55 333.545 120.977 333.886 120.5 334.341C120.023 334.795 119.656 335.352 119.425 335.969C118.855 337.551 118.808 339.26 119.678 339.782C121.063 340.218 122.565 340.087 123.854 339.418Z" fill="#E6E6E6"/>
<path d="M117.321 337.409C116.687 337.99 115.934 338.425 115.114 338.685C114.294 338.945 113.428 339.022 112.575 338.911C110.866 338.69 109.949 336.349 109.047 334.893C111.009 334.326 113.023 333.955 115.058 333.786C115.484 333.732 115.917 333.774 116.324 333.908C116.732 334.042 117.105 334.265 117.416 334.561C117.714 334.873 117.888 335.283 117.905 335.714C117.923 336.145 117.783 336.567 117.511 336.902L117.321 337.409Z" fill="#E6E6E6"/>
<path d="M110.439 341.38C110.966 340.626 111.651 339.997 112.446 339.535C113.241 339.073 114.127 338.791 115.043 338.706C115.792 338.704 116.53 338.879 117.198 339.218C117.866 339.556 118.445 340.047 118.887 340.652C118.735 341.165 118.445 341.626 118.049 341.986C117.653 342.346 117.166 342.59 116.641 342.693C115.595 342.89 114.522 342.89 113.477 342.693C112.431 342.495 111.358 342.495 110.312 342.693L110.439 341.38Z" fill="#E6E6E6"/>
<path d="M135.024 363.274H125.532C125.181 363.259 124.835 363.362 124.549 363.565C124.262 363.768 124.052 364.061 123.95 364.398C122.202 370.602 121.387 377.032 121.53 383.477C121.53 394.551 124.441 409.453 125.358 413.835C125.429 414.201 125.626 414.53 125.916 414.764C126.205 414.998 126.568 415.123 126.94 415.117H133.521C133.894 415.123 134.256 414.998 134.546 414.764C134.835 414.53 135.033 414.201 135.103 413.835C136.021 409.453 138.932 394.63 138.932 383.477C139.075 377.032 138.259 370.602 136.511 364.398C136.414 364.077 136.218 363.796 135.951 363.594C135.683 363.392 135.359 363.28 135.024 363.274Z" fill="#F0F0F0"/>
<path d="M395.5 675.53C564.904 675.53 702.234 667.512 702.234 657.622C702.234 647.731 564.904 639.713 395.5 639.713C226.095 639.713 88.7656 647.731 88.7656 657.622C88.7656 667.512 226.095 675.53 395.5 675.53Z" fill="#F5F5F5"/>
<path d="M191.074 596.05C190.815 596.034 190.573 595.917 190.398 595.725C190.224 595.533 190.131 595.281 190.14 595.022C191.311 548.527 193.7 472.259 193.826 471.832C193.91 471.578 194.088 471.366 194.323 471.239C194.559 471.113 194.834 471.081 195.092 471.151C195.348 471.232 195.563 471.409 195.69 471.646C195.817 471.882 195.846 472.159 195.772 472.417C195.772 472.512 193.32 549.049 192.149 595.069C192.147 595.202 192.119 595.332 192.066 595.453C192.013 595.575 191.936 595.684 191.841 595.775C191.745 595.867 191.632 595.938 191.509 595.985C191.385 596.032 191.253 596.054 191.121 596.05H191.074Z" fill="#263238"/>
<path d="M184.825 440.793C185.22 444.368 189.571 456.787 193.083 456.407C196.595 456.027 198.193 442.96 197.829 439.385C197.642 437.665 196.78 436.089 195.431 435.005C194.083 433.92 192.359 433.416 190.639 433.603C188.918 433.789 187.343 434.652 186.258 436C185.174 437.349 184.67 439.073 184.856 440.793H184.825Z" fill="#4B04A0"/>
<path d="M202.211 479.963C201.816 476.372 197.465 463.953 193.953 464.349C190.441 464.744 188.859 477.78 189.207 481.371C189.394 483.091 190.256 484.667 191.605 485.751C192.953 486.836 194.677 487.34 196.397 487.153C198.118 486.966 199.693 486.104 200.778 484.756C201.862 483.407 202.366 481.683 202.18 479.963H202.211Z" fill="#4B04A0"/>
<path d="M174.02 469.063C177.596 468.684 190.014 464.396 189.619 460.805C189.223 457.214 176.188 455.711 172.612 456.059C171.761 456.152 170.935 456.411 170.184 456.822C169.432 457.234 168.769 457.789 168.232 458.457C167.695 459.124 167.295 459.891 167.054 460.714C166.814 461.536 166.738 462.398 166.83 463.249C166.923 464.101 167.182 464.926 167.593 465.678C168.005 466.429 168.56 467.093 169.228 467.63C169.895 468.167 170.662 468.567 171.485 468.807C172.307 469.048 173.168 469.124 174.02 469.032V469.063Z" fill="#4B04A0"/>
<path d="M213.095 451.693C209.52 452.072 197.101 456.439 197.497 459.951C197.892 463.463 210.928 465.045 214.503 464.697C215.367 464.621 216.207 464.374 216.975 463.969C217.742 463.564 218.42 463.011 218.971 462.34C219.521 461.67 219.932 460.897 220.18 460.066C220.428 459.234 220.507 458.362 220.414 457.5C220.32 456.637 220.055 455.803 219.635 455.044C219.214 454.285 218.646 453.618 217.965 453.082C217.283 452.546 216.501 452.151 215.665 451.92C214.829 451.69 213.955 451.629 213.095 451.74V451.693Z" fill="#4B04A0"/>
<path d="M173.53 452.674C176.33 454.936 188.147 460.678 190.41 457.878C192.672 455.078 184.509 444.764 181.709 442.501C181.047 441.915 180.273 441.47 179.433 441.191C178.594 440.913 177.707 440.808 176.826 440.883C175.945 440.957 175.089 441.21 174.308 441.625C173.528 442.04 172.84 442.61 172.286 443.299C171.732 443.988 171.323 444.782 171.085 445.634C170.847 446.485 170.784 447.376 170.901 448.253C171.017 449.129 171.31 449.973 171.762 450.733C172.214 451.493 172.815 452.153 173.53 452.674Z" fill="#4B04A0"/>
<path d="M213.57 468.082C210.77 465.82 198.952 460.077 196.706 462.877C194.459 465.678 202.591 475.992 205.407 478.239C206.07 478.804 206.841 479.23 207.672 479.493C208.503 479.755 209.378 479.848 210.246 479.766C211.114 479.684 211.956 479.429 212.724 479.016C213.491 478.603 214.168 478.04 214.714 477.36C215.26 476.681 215.664 475.899 215.903 475.061C216.141 474.222 216.209 473.345 216.103 472.48C215.996 471.614 215.717 470.78 215.282 470.024C214.847 469.269 214.265 468.609 213.57 468.082Z" fill="#4B04A0"/>
<path d="M185.821 480.359C188.084 477.558 193.826 465.741 191.01 463.494C188.194 461.248 177.911 469.38 175.649 472.195C174.567 473.544 174.064 475.268 174.253 476.987C174.441 478.707 175.305 480.281 176.654 481.363C178.003 482.446 179.726 482.948 181.446 482.76C183.165 482.571 184.739 481.708 185.821 480.359Z" fill="#4B04A0"/>
<path d="M201.214 440.381C198.968 443.197 193.209 454.999 196.025 457.261C198.841 459.523 209.124 451.36 211.386 448.56C211.972 447.898 212.418 447.124 212.696 446.285C212.974 445.446 213.079 444.559 213.005 443.678C212.93 442.797 212.678 441.94 212.262 441.16C211.847 440.379 211.278 439.691 210.589 439.137C209.9 438.583 209.105 438.175 208.254 437.937C207.402 437.699 206.511 437.636 205.635 437.752C204.758 437.868 203.915 438.161 203.155 438.613C202.395 439.065 201.735 439.667 201.214 440.381Z" fill="#4B04A0"/>
<g opacity="0.6">
<path d="M184.826 440.793C185.221 444.368 189.572 456.787 193.084 456.407C196.596 456.027 198.194 442.96 197.83 439.385C197.643 437.665 196.781 436.089 195.432 435.005C194.084 433.92 192.36 433.416 190.64 433.603C188.919 433.789 187.344 434.652 186.259 436C185.175 437.349 184.671 439.073 184.857 440.793H184.826Z" fill="white"/>
<path d="M202.211 479.963C201.816 476.372 197.465 463.953 193.953 464.349C190.441 464.744 188.859 477.78 189.207 481.371C189.394 483.091 190.256 484.667 191.605 485.751C192.953 486.836 194.677 487.34 196.397 487.153C198.118 486.966 199.693 486.104 200.778 484.756C201.862 483.407 202.366 481.683 202.18 479.963H202.211Z" fill="white"/>
<path d="M174.02 469.063C177.596 468.684 190.014 464.396 189.619 460.805C189.223 457.214 176.188 455.711 172.612 456.059C171.761 456.152 170.935 456.411 170.184 456.822C169.432 457.234 168.769 457.789 168.232 458.457C167.695 459.124 167.295 459.891 167.054 460.714C166.814 461.536 166.738 462.398 166.83 463.249C166.923 464.101 167.182 464.926 167.593 465.678C168.005 466.429 168.56 467.093 169.228 467.63C169.895 468.167 170.662 468.567 171.485 468.807C172.307 469.048 173.168 469.124 174.02 469.032V469.063Z" fill="white"/>
<path d="M213.096 451.693C209.521 452.072 197.102 456.439 197.498 459.951C197.893 463.463 210.929 465.045 214.504 464.697C215.368 464.621 216.208 464.374 216.975 463.969C217.743 463.564 218.421 463.011 218.972 462.34C219.522 461.67 219.933 460.897 220.181 460.066C220.429 459.234 220.508 458.362 220.415 457.5C220.321 456.637 220.056 455.803 219.635 455.044C219.215 454.285 218.647 453.618 217.966 453.082C217.284 452.546 216.502 452.151 215.666 451.92C214.83 451.69 213.956 451.629 213.096 451.74V451.693Z" fill="white"/>
<path d="M173.53 452.674C176.33 454.936 188.147 460.678 190.41 457.878C192.672 455.078 184.509 444.764 181.709 442.501C181.047 441.915 180.273 441.47 179.433 441.191C178.594 440.913 177.707 440.808 176.826 440.883C175.945 440.957 175.089 441.21 174.308 441.625C173.528 442.04 172.84 442.61 172.286 443.299C171.732 443.988 171.323 444.782 171.085 445.634C170.847 446.485 170.784 447.376 170.901 448.253C171.017 449.129 171.31 449.973 171.762 450.733C172.214 451.493 172.815 452.153 173.53 452.674Z" fill="white"/>
<path d="M213.57 468.082C210.77 465.82 198.952 460.077 196.706 462.877C194.459 465.678 202.591 475.992 205.407 478.239C206.07 478.804 206.841 479.23 207.672 479.493C208.503 479.755 209.378 479.848 210.246 479.766C211.114 479.684 211.956 479.429 212.724 479.016C213.491 478.603 214.168 478.04 214.714 477.36C215.26 476.681 215.664 475.899 215.903 475.061C216.141 474.222 216.209 473.345 216.103 472.48C215.996 471.614 215.717 470.78 215.282 470.024C214.847 469.269 214.265 468.609 213.57 468.082Z" fill="white"/>
<path d="M185.822 480.359C188.085 477.558 193.827 465.741 191.011 463.494C188.195 461.248 177.912 469.38 175.65 472.195C174.568 473.544 174.065 475.268 174.254 476.987C174.442 478.707 175.306 480.281 176.655 481.363C178.004 482.446 179.727 482.948 181.447 482.76C183.166 482.571 184.74 481.708 185.822 480.359Z" fill="white"/>
<path d="M201.215 440.381C198.969 443.197 193.21 454.999 196.026 457.261C198.842 459.523 209.125 451.36 211.387 448.56C211.973 447.898 212.419 447.124 212.697 446.285C212.975 445.446 213.08 444.559 213.006 443.678C212.931 442.797 212.679 441.94 212.263 441.16C211.848 440.379 211.279 439.691 210.59 439.137C209.901 438.583 209.106 438.175 208.255 437.937C207.403 437.699 206.512 437.636 205.636 437.752C204.759 437.868 203.916 438.161 203.156 438.613C202.396 439.065 201.736 439.667 201.215 440.381Z" fill="white"/>
</g>
<path d="M185.837 461.217C186.005 462.733 186.619 464.166 187.601 465.333C188.582 466.501 189.888 467.352 191.353 467.778C192.818 468.205 194.377 468.187 195.832 467.729C197.287 467.27 198.573 466.39 199.529 465.201C200.484 464.011 201.066 462.565 201.2 461.046C201.335 459.526 201.016 458 200.284 456.662C199.552 455.323 198.439 454.231 197.087 453.524C195.735 452.817 194.204 452.527 192.687 452.69C191.677 452.798 190.698 453.105 189.806 453.592C188.915 454.08 188.128 454.738 187.492 455.531C186.855 456.323 186.381 457.233 186.097 458.209C185.814 459.184 185.725 460.207 185.837 461.217Z" fill="#4B04A0"/>
<path d="M186.676 561.99C177.769 562.18 162.519 553.953 156.523 545.917C150.527 537.88 167.502 542.753 165.73 536.425C163.958 530.097 142.934 534.843 139.026 525.636C135.118 516.428 150.306 518.532 149.689 513.834C149.072 509.135 133.347 510.132 128.268 500.387C123.19 490.642 137.048 496.052 134.865 492.018C132.682 487.984 115.296 470.977 122.542 467.402C129.787 463.827 146.082 481.529 151.54 483.507C156.997 485.484 158.231 473.208 165.319 479.046C172.406 484.883 167.201 510.543 175.554 513.85C181.772 516.349 179.098 504.627 186.249 507.522C198.715 512.695 190.219 561.911 186.676 561.99Z" fill="#4B04A0"/>
<g opacity="0.2">
<path d="M186.676 561.99C177.769 562.18 162.519 553.953 156.523 545.917C150.527 537.88 167.502 542.753 165.73 536.425C163.958 530.097 142.934 534.843 139.026 525.636C135.118 516.428 150.306 518.532 149.689 513.834C149.072 509.135 133.347 510.132 128.268 500.387C123.19 490.642 137.048 496.052 134.865 492.018C132.682 487.984 115.296 470.977 122.542 467.402C129.787 463.827 146.082 481.529 151.54 483.507C156.997 485.484 158.231 473.208 165.319 479.046C172.406 484.883 167.201 510.543 175.554 513.85C181.772 516.349 179.098 504.627 186.249 507.522C198.715 512.695 190.219 561.911 186.676 561.99Z" fill="white"/>
</g>
<path d="M199.411 550.679C199.553 550.932 198.224 552.261 202.575 552.371C213.411 552.814 232.633 552.087 239.767 542.231C250.05 528.167 226.352 529.464 228.693 521.665C231.035 513.866 256.458 520.241 261.425 509.167C266.392 498.093 247.867 500.26 248.769 494.549C249.671 488.838 269.05 496.242 275.457 484.488C281.864 472.734 264.89 479.03 267.547 474.157C270.205 469.285 291.91 449.067 283.177 444.542C274.445 440.018 254.211 461.185 247.535 463.526C240.859 465.868 239.309 445.049 230.544 451.993C221.78 458.938 227.523 490.246 217.287 494.138C209.662 497.033 213.823 485.801 204.41 486.228C191.643 486.75 187.435 530.666 199.411 550.679Z" fill="#4B04A0"/>
<g opacity="0.3">
<path d="M199.411 550.679C199.553 550.932 198.224 552.261 202.575 552.371C213.411 552.814 232.633 552.087 239.767 542.231C250.05 528.167 226.352 529.464 228.693 521.665C231.035 513.866 256.458 520.241 261.425 509.167C266.392 498.093 247.867 500.26 248.769 494.549C249.671 488.838 269.05 496.242 275.457 484.488C281.864 472.734 264.89 479.03 267.547 474.157C270.205 469.285 291.91 449.067 283.177 444.542C274.445 440.018 254.211 461.185 247.535 463.526C240.859 465.868 239.309 445.049 230.544 451.993C221.78 458.938 227.523 490.246 217.287 494.138C209.662 497.033 213.823 485.801 204.41 486.228C191.643 486.75 187.435 530.666 199.411 550.679Z" fill="white"/>
</g>
<path d="M191.295 589.026C191.202 589.016 191.112 588.988 191.03 588.943C190.948 588.897 190.876 588.836 190.818 588.762C190.761 588.688 190.718 588.603 190.694 588.513C190.67 588.422 190.665 588.328 190.678 588.235C199.569 515.463 241.508 485.848 241.935 485.563C242.011 485.511 242.096 485.475 242.186 485.456C242.276 485.437 242.369 485.436 242.459 485.453C242.549 485.47 242.635 485.504 242.712 485.554C242.789 485.605 242.856 485.669 242.908 485.745C242.96 485.821 242.996 485.906 243.015 485.996C243.034 486.086 243.035 486.179 243.018 486.269C243.001 486.36 242.967 486.446 242.917 486.523C242.866 486.6 242.802 486.666 242.726 486.718C242.314 487.019 200.898 516.286 192.102 588.409C192.09 588.503 192.06 588.594 192.013 588.676C191.966 588.758 191.903 588.829 191.828 588.887C191.753 588.944 191.667 588.986 191.575 589.01C191.484 589.034 191.389 589.039 191.295 589.026Z" fill="#263238"/>
<path d="M232.317 495.672C232.175 495.669 232.038 495.621 231.924 495.536C231.811 495.451 231.727 495.333 231.684 495.198C231.624 495.019 231.636 494.824 231.719 494.655C231.802 494.486 231.949 494.357 232.127 494.296C232.396 494.217 238.645 492.239 248.865 494.407C249.047 494.448 249.206 494.559 249.309 494.715C249.413 494.871 249.452 495.061 249.418 495.245C249.38 495.429 249.271 495.591 249.113 495.695C248.956 495.799 248.764 495.836 248.58 495.799C238.74 493.711 232.633 495.625 232.57 495.641C232.489 495.668 232.403 495.679 232.317 495.672Z" fill="#263238"/>
<path d="M224.644 504.516C224.462 504.512 224.289 504.436 224.162 504.306C224.035 504.176 223.964 504.001 223.964 503.82C223.742 481.798 236.493 464.602 236.62 464.428C236.735 464.285 236.9 464.19 237.082 464.164C237.264 464.137 237.449 464.181 237.601 464.285C237.675 464.342 237.738 464.412 237.786 464.492C237.834 464.573 237.865 464.662 237.878 464.754C237.891 464.847 237.886 464.941 237.863 465.032C237.84 465.122 237.799 465.207 237.743 465.282C237.616 465.44 225.087 482.289 225.372 503.804C225.372 503.99 225.299 504.169 225.169 504.302C225.039 504.435 224.862 504.512 224.676 504.516H224.644Z" fill="#263238"/>
<path d="M212.083 523.152C211.993 523.15 211.904 523.129 211.822 523.091C211.741 523.053 211.668 522.998 211.608 522.93C211.542 522.865 211.489 522.788 211.453 522.702C211.417 522.617 211.398 522.525 211.398 522.432C211.398 522.339 211.417 522.247 211.453 522.161C211.489 522.076 211.542 521.998 211.608 521.933C211.703 521.854 221.101 513.122 233.503 517.551C233.657 517.63 233.776 517.762 233.839 517.923C233.902 518.083 233.905 518.261 233.847 518.423C233.789 518.586 233.674 518.721 233.524 518.805C233.373 518.889 233.197 518.916 233.029 518.88C221.48 514.735 212.668 522.883 212.589 522.962C212.522 523.026 212.443 523.076 212.356 523.109C212.269 523.142 212.176 523.156 212.083 523.152Z" fill="#263238"/>
<path d="M205.549 536.156C205.417 536.147 205.29 536.103 205.181 536.028C205.073 535.952 204.987 535.849 204.932 535.728C201.805 526.981 201.025 517.566 202.67 508.423C202.683 508.331 202.715 508.243 202.763 508.163C202.811 508.084 202.875 508.015 202.95 507.96C203.025 507.906 203.111 507.867 203.201 507.846C203.292 507.825 203.385 507.822 203.477 507.838C203.661 507.869 203.825 507.971 203.934 508.122C204.044 508.272 204.09 508.46 204.062 508.645C202.497 517.527 203.244 526.664 206.23 535.175C206.266 535.259 206.286 535.349 206.287 535.441C206.289 535.533 206.272 535.624 206.238 535.709C206.205 535.794 206.154 535.872 206.09 535.938C206.026 536.004 205.95 536.056 205.866 536.092C205.766 536.136 205.658 536.157 205.549 536.156Z" fill="#263238"/>
<path d="M191.564 615.034C191.388 615.026 191.221 614.952 191.098 614.825C190.974 614.699 190.904 614.531 190.9 614.354L189.982 595.069C187.277 530.951 143.313 487.351 142.87 486.924C142.765 486.789 142.712 486.62 142.722 486.448C142.731 486.277 142.802 486.115 142.921 485.992C143.041 485.869 143.2 485.793 143.371 485.778C143.542 485.763 143.712 485.811 143.851 485.911C144.294 486.354 188.669 530.318 191.39 595.069L192.308 614.354C192.312 614.54 192.243 614.721 192.116 614.857C191.989 614.993 191.814 615.074 191.628 615.082L191.564 615.034Z" fill="#263238"/>
<path d="M161 510.986H160.89C160.815 510.981 160.743 510.953 160.684 510.907L160.447 510.828C154.727 508.438 148.579 507.242 142.38 507.316C142.194 507.32 142.014 507.252 141.878 507.124C141.742 506.997 141.661 506.822 141.653 506.636C141.65 506.542 141.667 506.449 141.701 506.362C141.734 506.275 141.785 506.195 141.85 506.128C141.914 506.06 141.992 506.006 142.077 505.968C142.163 505.931 142.255 505.91 142.349 505.908C148.756 505.832 155.113 507.06 161.032 509.515L161.254 509.61H161.38C161.52 509.678 161.633 509.792 161.699 509.933C161.766 510.074 161.781 510.234 161.744 510.385C161.72 510.561 161.63 510.722 161.492 510.834C161.353 510.945 161.178 511 161 510.986Z" fill="#263238"/>
<path d="M167.217 519.26C167.125 519.254 167.035 519.229 166.952 519.188C166.87 519.146 166.797 519.087 166.738 519.016C166.678 518.945 166.634 518.863 166.608 518.774C166.582 518.685 166.574 518.592 166.585 518.5C168.277 499.516 158.485 483.997 158.374 483.855C158.284 483.696 158.259 483.508 158.304 483.331C158.348 483.154 158.46 483.001 158.614 482.903C158.768 482.805 158.954 482.771 159.134 482.807C159.313 482.843 159.471 482.946 159.576 483.095C159.671 483.253 169.733 499.2 167.977 518.627C167.969 518.719 167.943 518.808 167.9 518.889C167.858 518.971 167.8 519.043 167.729 519.102C167.658 519.16 167.577 519.205 167.489 519.232C167.401 519.259 167.309 519.269 167.217 519.26Z" fill="#263238"/>
<path d="M173.64 530.223C173.461 530.22 173.291 530.146 173.166 530.017C170.813 527.888 167.967 526.377 164.886 525.621C161.804 524.864 158.582 524.885 155.511 525.683C155.328 525.731 155.134 525.705 154.971 525.61C154.808 525.515 154.689 525.359 154.64 525.177C154.617 525.087 154.611 524.994 154.624 524.902C154.636 524.811 154.667 524.723 154.714 524.643C154.762 524.564 154.824 524.494 154.898 524.439C154.972 524.384 155.057 524.344 155.147 524.322C158.454 523.437 161.932 523.409 165.253 524.239C168.574 525.069 171.629 526.731 174.131 529.068C174.197 529.133 174.25 529.211 174.286 529.296C174.322 529.382 174.341 529.474 174.341 529.567C174.341 529.659 174.322 529.751 174.286 529.837C174.25 529.923 174.197 530 174.131 530.065C174.064 530.123 173.986 530.166 173.901 530.193C173.817 530.221 173.728 530.231 173.64 530.223Z" fill="#263238"/>
<path d="M181.788 548.29C181.683 548.288 181.579 548.261 181.487 548.211C181.404 548.169 181.331 548.111 181.27 548.04C181.21 547.97 181.165 547.888 181.137 547.799C181.109 547.711 181.099 547.618 181.107 547.525C181.116 547.433 181.143 547.343 181.186 547.261C184.411 539.976 185.713 531.985 184.967 524.053C184.954 523.867 185.015 523.683 185.136 523.541C185.258 523.399 185.43 523.31 185.616 523.294C185.709 523.285 185.802 523.295 185.891 523.324C185.98 523.352 186.062 523.397 186.133 523.458C186.204 523.518 186.262 523.592 186.303 523.676C186.345 523.759 186.369 523.85 186.375 523.943C187.183 532.139 185.824 540.403 182.436 547.91C182.376 548.029 182.283 548.128 182.168 548.195C182.053 548.262 181.921 548.295 181.788 548.29Z" fill="#263238"/>
<path d="M231.225 618.072C231.225 640.552 221.1 658.792 190.473 658.792C161.237 658.792 149.736 640.552 149.736 618.072C149.73 609.907 152.184 601.93 156.776 595.18H224.185C228.778 601.93 231.231 609.907 231.225 618.072Z" fill="#4B04A0"/>
<path opacity="0.7" d="M231.225 618.072C231.225 640.552 221.1 658.792 190.473 658.792C161.237 658.792 149.736 640.552 149.736 618.072C149.73 609.907 152.184 601.93 156.776 595.18H224.185C228.778 601.93 231.231 609.907 231.225 618.072Z" fill="white"/>
<path d="M465.266 638.906L481.023 636.613L477.052 599.752L461.279 602.046L465.266 638.906Z" fill="#E8BFBF"/>
<path d="M493.141 637.166C494.506 637.062 495.798 636.505 496.811 635.584C497.023 635.316 497.167 635 497.23 634.664C497.294 634.328 497.275 633.981 497.175 633.654C497.129 633.452 497.032 633.265 496.893 633.11C496.755 632.955 496.58 632.837 496.384 632.768C494.28 632.009 488.474 636.264 487.873 636.739C487.809 636.787 487.761 636.854 487.735 636.93C487.71 637.007 487.708 637.089 487.731 637.166C487.757 637.237 487.804 637.298 487.867 637.34C487.929 637.383 488.003 637.405 488.079 637.403C489.77 637.475 491.464 637.396 493.141 637.166ZM495.356 633.464C495.59 633.41 495.834 633.41 496.068 633.464C496.15 633.49 496.225 633.538 496.283 633.601C496.341 633.665 496.382 633.744 496.4 633.828C496.465 634.045 496.478 634.275 496.437 634.498C496.395 634.721 496.301 634.93 496.163 635.11C495.356 636.106 492.777 636.692 489.202 636.692C491.074 635.292 493.171 634.222 495.403 633.528L495.356 633.464Z" fill="#4B04A0"/>
<path d="M488.173 637.419H488.3C490.056 636.264 493.204 632.246 492.603 630.522C492.48 630.218 492.254 629.968 491.965 629.814C491.675 629.661 491.341 629.615 491.021 629.683C490.642 629.694 490.27 629.783 489.927 629.943C489.585 630.104 489.278 630.333 489.028 630.617C487.335 632.578 487.667 636.945 487.667 637.071C487.668 637.135 487.683 637.197 487.71 637.255C487.737 637.312 487.777 637.363 487.825 637.403C487.879 637.43 487.938 637.446 487.998 637.448C488.058 637.451 488.117 637.441 488.173 637.419ZM490.815 630.427L491.037 630.316C491.733 630.316 491.812 630.553 491.828 630.632C492.207 631.692 490.103 634.777 488.363 636.201C488.205 634.381 488.632 632.558 489.581 630.996C489.915 630.65 490.367 630.442 490.847 630.411L490.815 630.427Z" fill="#4B04A0"/>
<path d="M479.346 630.079L465.377 633.417C465.074 633.478 464.805 633.649 464.621 633.898C464.437 634.146 464.351 634.454 464.381 634.762L464.839 654.995C464.886 655.331 464.998 655.654 465.17 655.946C465.342 656.238 465.569 656.494 465.839 656.698C466.11 656.902 466.418 657.051 466.745 657.136C467.073 657.222 467.415 657.241 467.75 657.194C467.85 657.203 467.951 657.203 468.051 657.194C474.094 655.612 476.958 654.663 484.646 652.876C489.392 651.8 504.31 650.661 510.433 647.94C516.555 645.219 514.166 639.017 511.382 639.603C502.396 641.533 490.816 637.688 484.314 631.835C483.491 631.345 480.375 629.842 479.346 630.079Z" fill="#263238"/>
<path opacity="0.2" d="M477.052 599.752L479.093 618.752L463.336 621.061L461.279 602.062L477.052 599.752Z" fill="black"/>
<path d="M485.468 610.937L456.312 616.379C456.312 616.379 442.153 596.161 439.48 581.812C436.695 566.862 439.669 515.985 439.48 515.368C431.237 487.525 408.82 415.386 398.015 388.808C392.02 374.095 387.812 364.192 387.812 364.192L390.833 363.512L414.642 353.767L432.044 357.026C432.044 357.026 484.741 463.605 490.262 503.693C494.328 533.593 485.468 610.937 485.468 610.937Z" fill="#4B04A0"/>
<path opacity="0.3" d="M485.468 610.937L456.312 616.379C456.312 616.379 442.153 596.161 439.48 581.812C436.695 566.862 439.669 515.985 439.48 515.368C431.237 487.525 408.82 415.386 398.015 388.808C392.02 374.095 387.812 364.192 387.812 364.192L390.833 363.512L414.642 353.767L432.044 357.026C432.044 357.026 484.741 463.605 490.262 503.693C494.328 533.593 485.468 610.937 485.468 610.937Z" fill="white"/>
<path opacity="0.2" d="M432.614 491.195C424.372 463.352 407.729 421.128 396.908 394.583L389.742 369.271L388.365 364.398L390.881 369.002L419.119 431.554C431.585 455.616 432.804 491.876 432.614 491.195Z" fill="black"/>
<path d="M304.646 630.237L318.694 636.153L333.675 603.991L319.643 598.075L304.646 630.237Z" fill="#E8BFBF"/>
<path d="M327.837 642.877C328.95 643.574 330.267 643.87 331.571 643.716C331.888 643.632 332.18 643.471 332.42 643.248C332.66 643.024 332.841 642.745 332.947 642.434C333.028 642.254 333.06 642.055 333.041 641.858C333.021 641.661 332.951 641.473 332.837 641.311C331.634 639.539 324.784 639.555 324.025 639.555C323.95 639.563 323.878 639.59 323.817 639.635C323.755 639.679 323.707 639.739 323.677 639.808C323.657 639.879 323.659 639.955 323.681 640.025C323.704 640.095 323.746 640.157 323.803 640.204C325.063 641.217 326.413 642.112 327.837 642.877ZM331.634 641.295C331.853 641.386 332.044 641.534 332.188 641.723C332.227 641.793 332.247 641.872 332.247 641.952C332.247 642.032 332.227 642.111 332.188 642.181C332.114 642.384 331.994 642.566 331.838 642.715C331.681 642.863 331.492 642.973 331.286 643.036C330.084 643.352 327.79 642.34 324.958 640.315C327.214 640.264 329.461 640.601 331.603 641.311L331.634 641.295Z" fill="#4B04A0"/>
<path d="M323.867 640.267H323.993C326.003 640.378 330.701 639.049 331.223 637.388C331.308 637.079 331.28 636.75 331.144 636.46C331.007 636.169 330.772 635.938 330.48 635.806C330.184 635.599 329.848 635.457 329.494 635.388C329.139 635.32 328.774 635.328 328.423 635.41C325.987 635.948 323.819 639.476 323.677 639.618C323.651 639.673 323.637 639.732 323.637 639.792C323.637 639.853 323.651 639.912 323.677 639.966C323.68 640.029 323.7 640.089 323.733 640.142C323.766 640.194 323.812 640.237 323.867 640.267ZM329.863 636.36H330.084C330.638 636.723 330.543 636.977 330.511 637.056C330.211 638.068 326.857 639.27 324.705 639.397C325.603 637.901 326.956 636.731 328.565 636.059C329.026 635.98 329.5 636.076 329.894 636.328L329.863 636.36Z" fill="#4B04A0"/>
<path d="M321.241 629.636L308.585 624.32C308.31 624.183 307.994 624.155 307.699 624.243C307.405 624.331 307.156 624.529 307.003 624.795L295.929 640.615C295.773 640.9 295.676 641.214 295.642 641.537C295.607 641.861 295.638 642.187 295.73 642.499C295.823 642.811 295.976 643.101 296.181 643.353C296.386 643.605 296.639 643.815 296.926 643.969L297.194 644.095C302.716 646.358 305.5 647.18 312.445 650.154C316.701 651.99 328.882 659.567 335.147 660.912C341.411 662.257 343.057 656.166 340.589 655.011C332.568 651.42 325.829 641.928 324.073 633.717C323.677 632.926 322.127 630 321.241 629.636Z" fill="#263238"/>
<path opacity="0.2" d="M334.292 604.371L326.176 620.745L312.271 614.512L320.37 598.123L334.292 604.371Z" fill="black"/>
<path d="M337.22 622.216L309.25 607.314C309.25 607.314 303.887 587.396 309.25 574.693C319.564 550.251 346.427 514.308 346.601 513.628C353.767 485.5 366.328 408.441 370.631 380.107C373.004 364.398 374.412 361.012 374.412 361.012L377.371 361.977L420.085 362.056C420.085 362.056 428.153 426.918 397.209 527.217C389.52 552.181 376.643 572.937 355.397 601.017C349.708 608.393 343.641 615.469 337.22 622.216Z" fill="#4B04A0"/>
<path opacity="0.3" d="M337.22 622.216L309.25 607.314C309.25 607.314 303.887 587.396 309.25 574.693C319.564 550.251 346.427 514.308 346.601 513.628C353.767 485.5 366.328 408.441 370.631 380.107C373.004 364.398 374.412 361.012 374.412 361.012L377.371 361.977L420.085 362.056C420.085 362.056 428.153 426.918 397.209 527.217C389.52 552.181 376.643 572.937 355.397 601.017C349.708 608.393 343.641 615.469 337.22 622.216Z" fill="white"/>
<path d="M458.084 309.107C458.732 303.966 460.909 299.138 464.333 295.249C465.203 294.331 468.541 292.939 470.439 291.705C479.726 285.614 498.33 278.005 498.33 278.005L504.073 283.004C504.073 283.004 492.746 293.951 486.006 299.204C484.677 300.248 483.143 301.498 481.529 302.826C478.587 305.263 464.792 314.359 462.166 316.653L458.084 309.107Z" fill="#E8BFBF"/>
<path d="M514.688 275.173L504.072 283.083L498.124 278.701C499.651 276.768 501.294 274.93 503.044 273.196C503.582 272.673 504.01 272.049 504.304 271.359C504.597 270.669 504.75 269.927 504.753 269.177C504.633 266.731 505.18 264.298 506.335 262.137C506.332 262.095 506.332 262.053 506.335 262.011C506.876 261.249 507.622 260.658 508.487 260.305C509.352 259.952 510.3 259.853 511.219 260.019C512.138 260.185 512.991 260.609 513.678 261.242C514.365 261.875 514.858 262.69 515.099 263.593L516.681 269.256C516.971 270.329 516.937 271.464 516.582 272.517C516.227 273.571 515.568 274.495 514.688 275.173Z" fill="#E8BFBF"/>
<path d="M461.469 311.227L458.669 313.789C457.799 313.093 456.423 311.97 454.682 310.515C441.046 299.203 406.859 271.74 420.48 263.909C432.171 257.185 444.573 277.736 450.759 283.921C453.663 287.017 456.181 290.454 458.258 294.157C461.169 299.409 463.32 305.753 461.469 311.227Z" fill="#263238"/>
<path d="M458.243 291.705C453.391 295.254 449.289 299.727 446.172 304.867C447.314 308.605 449.244 312.056 451.83 314.986C454.417 317.917 457.602 320.26 461.169 321.858C465.134 312.866 466.834 303.04 466.121 293.239C463.653 292.67 460.71 292.242 458.243 291.705Z" fill="#263238"/>
<path d="M383.176 262.311C378.287 263.893 372.703 262.612 369.571 266.677C366.438 270.743 365.505 276.075 365.505 281.2C365.793 288.33 366.886 295.404 368.764 302.288C370.726 310.726 372.692 319.137 374.665 327.521C376.009 333.28 374.586 360.031 376.025 360.474C376.025 360.474 420.748 359.604 431.965 358.022C431.965 358.022 432.93 330.527 433.831 321.162C434.037 319.089 437.185 310.262 437.549 308.047C439.305 297.606 435.872 290.249 432.265 280.283C432.265 280.283 424.355 264.352 420.479 263.909C413.598 263.134 396.765 257.866 383.176 262.311Z" fill="#154449"/>
<path d="M381.262 275.489C381.104 274.572 373.162 258.53 365.553 269.746C354.969 285.345 354.257 304.93 354.257 304.93C354.257 304.93 347.755 323.914 352.28 328.122C356.804 332.33 361.772 334.957 364.936 332.599C367.169 330.649 368.951 328.236 370.156 325.528C370.156 325.528 384.078 291.815 381.262 275.489Z" fill="#154449"/>
<path d="M380.772 256.363C380 257.057 379.398 257.919 379.01 258.882C378.623 259.846 378.462 260.885 378.538 261.92C378.614 262.955 378.927 263.959 379.451 264.855C379.975 265.751 380.698 266.515 381.563 267.089C381.099 268.716 381.103 270.44 381.576 272.064C382.048 273.689 382.97 275.146 384.234 276.27C385.498 277.394 387.054 278.138 388.722 278.417C390.391 278.696 392.104 278.498 393.665 277.847C392.336 280.251 393.839 283.431 396.165 284.918C398.618 286.187 401.316 286.91 404.075 287.038C406.844 287.17 409.501 288.172 411.668 289.901L420.116 277.736C421.357 276.249 422.162 274.447 422.442 272.531C422.521 270.617 421.065 268.497 419.151 268.639C420.111 267.604 420.645 266.245 420.648 264.833C420.651 263.421 420.122 262.06 419.166 261.021C418.211 259.982 416.899 259.34 415.492 259.225C414.085 259.109 412.686 259.528 411.573 260.397C411.709 259.567 411.598 258.716 411.255 257.949C410.912 257.181 410.352 256.531 409.643 256.078C408.206 255.211 406.574 254.716 404.897 254.639L380.772 256.363Z" fill="#263238"/>
<path d="M385.849 235.718C388.048 243.786 390.722 258.673 385.391 264.558C395.161 268.775 403.955 274.963 411.225 282.735C413.145 280.969 414.462 278.645 414.99 276.09C415.518 273.535 415.23 270.879 414.167 268.497C413.546 266.984 412.626 265.612 411.463 264.462C410.299 263.312 408.916 262.409 407.396 261.805C401.511 259.305 401.464 253.531 402.445 247.978L385.849 235.718Z" fill="#E8BFBF"/>
<path opacity="0.2" d="M389.172 249.465L394.725 250.968C397.105 251.615 399.594 251.761 402.034 251.395C401.829 253.106 402.007 254.841 402.556 256.474C400.697 257.191 398.67 257.353 396.721 256.941C394.772 256.528 392.985 255.558 391.577 254.148C390.549 252.714 389.739 251.136 389.172 249.465Z" fill="black"/>
<path d="M375.077 228.836C380.946 241.239 383.176 246.618 392.225 250.573C405.862 256.537 419.784 246.57 417.727 232.664C415.86 220.151 406.558 201.942 392.083 201.879C388.896 201.849 385.755 202.634 382.956 204.158C380.158 205.683 377.795 207.897 376.092 210.591C374.388 213.284 373.401 216.368 373.223 219.55C373.046 222.732 373.684 225.906 375.077 228.773V228.836Z" fill="#E8BFBF"/>
<path d="M381.53 205.138C377.243 203.144 371.928 204.774 368.352 207.906C364.777 211.039 362.515 215.563 360.442 219.914C359.194 222.228 358.238 224.688 357.595 227.238C356.955 229.818 357.305 232.545 358.576 234.879C359.254 235.97 360.181 236.885 361.281 237.547C362.381 238.21 363.622 238.603 364.904 238.692C365.692 238.741 366.452 239.003 367.101 239.452C367.751 239.901 368.266 240.519 368.59 241.239C368.914 242.569 368.914 243.958 368.59 245.289C368.289 246.579 368.289 247.922 368.59 249.212C369.021 250.227 369.729 251.1 370.632 251.732C371.536 252.365 372.598 252.73 373.7 252.788C375.903 252.849 378.098 252.494 380.17 251.743C380.801 251.528 381.478 251.485 382.132 251.618C382.785 251.752 383.392 252.057 383.888 252.503C384.141 252.736 384.355 253.008 384.52 253.31C384.682 253.584 384.916 253.809 385.197 253.958C385.478 254.107 385.795 254.176 386.113 254.157C386.431 254.137 386.737 254.03 386.998 253.847C387.258 253.664 387.463 253.412 387.59 253.12C389.504 248.564 386.719 241.302 382.575 235.718C380.376 232.775 380.486 233.519 379.632 229.944C378.904 226.969 379.996 223.869 381.325 221.116C383.112 217.43 385.391 213.855 384.679 209.457C384.545 208.535 384.188 207.66 383.639 206.907C383.091 206.155 382.367 205.547 381.53 205.138Z" fill="#263238"/>
<path d="M375.44 241.539C377.394 243.613 380.092 244.825 382.939 244.909C386.72 245.004 387.685 241.397 385.85 238.312C384.268 235.544 380.25 232.174 376.833 233.566C373.415 234.958 373.067 238.882 375.44 241.539Z" fill="#E8BFBF"/>
<path d="M398.664 226.637C399.107 227.713 399.977 228.298 400.657 228.014C401.337 227.729 401.511 226.701 401.132 225.641C400.752 224.581 399.834 224.059 399.138 224.264C398.442 224.47 398.3 225.593 398.664 226.637Z" fill="#263238"/>
<path d="M410.291 221.638C410.718 222.73 411.589 223.299 412.269 223.03C412.949 222.761 413.123 221.717 412.743 220.657C412.364 219.597 411.446 219.075 410.766 219.281C410.086 219.487 409.88 220.61 410.291 221.638Z" fill="#263238"/>
<path d="M410.466 219.47L412.665 217.746C412.665 217.746 412.19 220.198 410.466 219.47Z" fill="#263238"/>
<path d="M407.286 223.963C409.976 226.621 412.032 227.127 414.911 228.931C414.883 229.657 414.624 230.356 414.172 230.925C413.719 231.494 413.097 231.904 412.396 232.095L407.286 223.963Z" fill="#ED847E"/>
<path d="M411.161 237.173C411.665 236.988 412.152 236.761 412.617 236.493C412.69 236.453 412.744 236.385 412.768 236.305C412.792 236.225 412.783 236.139 412.743 236.066C412.698 235.994 412.627 235.942 412.546 235.919C412.464 235.895 412.377 235.903 412.3 235.939C411.09 236.642 409.73 237.046 408.332 237.118C406.934 237.189 405.54 236.926 404.264 236.35C404.186 236.311 404.096 236.305 404.013 236.331C403.93 236.358 403.861 236.416 403.821 236.493C403.799 236.53 403.785 236.571 403.779 236.614C403.773 236.657 403.777 236.7 403.789 236.742C403.8 236.783 403.821 236.822 403.848 236.855C403.875 236.889 403.909 236.916 403.947 236.936C405.073 237.455 406.291 237.743 407.53 237.784C408.769 237.825 410.004 237.617 411.161 237.173Z" fill="#263238"/>
<path d="M398.284 218.015C398.277 218.16 398.224 218.3 398.133 218.413C398.042 218.527 397.918 218.609 397.778 218.648C394.741 219.55 393.396 223.394 393.396 223.394C393.368 223.479 393.323 223.558 393.265 223.626C393.206 223.694 393.135 223.75 393.055 223.79C392.975 223.831 392.888 223.855 392.798 223.862C392.709 223.868 392.619 223.857 392.534 223.829C392.449 223.801 392.37 223.757 392.302 223.698C392.234 223.64 392.178 223.568 392.138 223.488C392.097 223.408 392.073 223.321 392.066 223.232C392.06 223.142 392.071 223.052 392.099 222.967C392.209 222.809 393.681 218.395 397.383 217.288C397.559 217.243 397.745 217.267 397.904 217.355C398.063 217.443 398.182 217.589 398.237 217.762C398.274 217.841 398.291 217.928 398.284 218.015Z" fill="#263238"/>
<path d="M412.284 216.148C412.167 216.232 412.026 216.277 411.881 216.277C411.737 216.277 411.596 216.232 411.478 216.148C409.01 214.155 405.071 215.247 405.055 215.263C404.969 215.289 404.878 215.299 404.788 215.29C404.698 215.281 404.611 215.255 404.532 215.212C404.452 215.169 404.382 215.111 404.325 215.041C404.268 214.971 404.226 214.89 404.2 214.804C404.151 214.63 404.171 214.443 404.257 214.284C404.342 214.124 404.487 214.004 404.659 213.95C404.849 213.95 409.405 212.652 412.332 215.057C412.469 215.174 412.557 215.338 412.577 215.518C412.598 215.697 412.55 215.877 412.443 216.022C412.398 216.073 412.344 216.116 412.284 216.148Z" fill="#263238"/>
<path d="M398.917 224.438L401.116 222.729C401.116 222.729 400.61 225.182 398.917 224.438Z" fill="#263238"/>
<path d="M382.48 203.065C380.749 203.218 379.075 203.761 377.584 204.655C376.094 205.548 374.825 206.768 373.874 208.223C372.609 210.184 372.166 213.159 374.033 214.551C374.985 215.132 376.081 215.433 377.197 215.421C381.943 215.848 387.938 212.13 387.938 212.13C386.087 204.22 402.588 198.177 410.719 210.358C413.108 213.934 412.459 216.528 416.43 218.189C418.297 218.964 420.765 218.743 421.967 220.388C423.945 223.093 420.132 227.681 422.552 230.007C424.214 231.589 427.979 230.988 428.216 233.282C428.311 234.357 427.615 235.908 428.643 236.224C429.213 236.398 429.751 235.876 430.114 235.401C431.103 234.34 431.829 233.061 432.234 231.668C432.427 230.972 432.385 230.231 432.113 229.561C431.841 228.892 431.355 228.331 430.731 227.966C429.719 227.507 427.045 227.966 427.219 229.105C426.81 226.596 426.677 224.05 426.824 221.512C427.267 219.392 429.292 217.541 428.675 215.452C428.058 213.364 425.384 212.288 423.09 212.004C420.796 211.719 418.186 211.387 416.762 209.552C415.339 207.716 415.908 204.552 415.402 202.005C414.978 200.414 414.184 198.944 413.085 197.718C411.985 196.492 410.61 195.543 409.074 194.95C399.819 190.979 385.629 191.548 382.48 203.065Z" fill="#263238"/>
<path d="M408.535 245.21L376.896 261.109C371.865 263.63 367.961 267.943 365.952 273.199C363.943 278.455 363.976 284.273 366.043 289.506L381.262 328.423C383.315 333.652 387.246 337.926 392.284 340.41C397.322 342.894 403.106 343.409 408.504 341.854L442.517 332.046C445.533 331.181 448.335 329.695 450.744 327.684C453.153 325.673 455.115 323.181 456.504 320.367C457.894 317.554 458.681 314.481 458.814 311.346C458.947 308.211 458.423 305.083 457.277 302.162L439.638 257.201C438.501 254.277 436.766 251.622 434.545 249.407C432.323 247.191 429.663 245.464 426.736 244.335C423.808 243.206 420.677 242.701 417.543 242.852C414.409 243.002 411.341 243.806 408.535 245.21ZM403.299 312.034C400.773 313.024 398.01 313.243 395.36 312.662C392.709 312.082 390.29 310.729 388.409 308.774C386.528 306.818 385.269 304.349 384.791 301.678C384.314 299.008 384.639 296.255 385.726 293.769C386.813 291.283 388.613 289.175 390.898 287.712C393.183 286.25 395.85 285.497 398.563 285.551C401.276 285.604 403.911 286.461 406.137 288.012C408.363 289.564 410.078 291.741 411.067 294.268C411.732 295.948 412.059 297.743 412.029 299.55C411.998 301.357 411.611 303.14 410.889 304.797C410.167 306.454 409.125 307.952 407.823 309.204C406.52 310.457 404.983 311.44 403.299 312.097V312.034Z" fill="#4B04A0"/>
<path d="M408.535 245.21L376.896 261.109C371.865 263.63 367.961 267.943 365.952 273.199C363.943 278.455 363.976 284.273 366.043 289.506L381.262 328.423C383.315 333.652 387.246 337.926 392.284 340.41C397.322 342.894 403.106 343.409 408.504 341.854L442.517 332.046C445.533 331.181 448.335 329.695 450.744 327.684C453.153 325.673 455.115 323.181 456.504 320.367C457.894 317.554 458.681 314.481 458.814 311.346C458.947 308.211 458.423 305.083 457.277 302.162L439.638 257.201C438.501 254.277 436.766 251.622 434.545 249.407C432.323 247.191 429.663 245.464 426.736 244.335C423.808 243.206 420.677 242.701 417.543 242.852C414.409 243.002 411.341 243.806 408.535 245.21ZM403.299 312.034C400.773 313.024 398.01 313.243 395.36 312.662C392.709 312.082 390.29 310.729 388.409 308.774C386.528 306.818 385.269 304.349 384.791 301.678C384.314 299.008 384.639 296.255 385.726 293.769C386.813 291.283 388.613 289.175 390.898 287.712C393.183 286.25 395.85 285.497 398.563 285.551C401.276 285.604 403.911 286.461 406.137 288.012C408.363 289.564 410.078 291.741 411.067 294.268C411.732 295.948 412.059 297.743 412.029 299.55C411.998 301.357 411.611 303.14 410.889 304.797C410.167 306.454 409.125 307.952 407.823 309.204C406.52 310.457 404.983 311.44 403.299 312.097V312.034Z" fill="#4B04A0"/>
<path opacity="0.1" d="M457.277 302.162L439.638 257.201C438.501 254.277 436.766 251.622 434.544 249.407C432.323 247.191 429.663 245.464 426.736 244.335C423.808 243.206 420.677 242.701 417.543 242.852C414.409 243.002 411.341 243.806 408.535 245.21L399.344 249.956L393.174 253.12L376.911 261.299C371.923 263.814 368.047 268.094 366.039 273.307C364.03 278.52 364.031 284.294 366.043 289.506L381.262 328.423C383.315 333.652 387.246 337.926 392.284 340.41C397.322 342.894 403.106 343.409 408.504 341.854L442.533 332.046C445.226 331.269 447.748 329.992 449.968 328.281C451.636 327.024 453.112 325.532 454.35 323.851C456.647 320.785 458.121 317.183 458.633 313.387C459.146 309.591 458.679 305.727 457.277 302.162ZM403.299 312.065C400.774 313.051 398.014 313.267 395.366 312.686C392.719 312.104 390.303 310.751 388.424 308.798C386.545 306.844 385.287 304.377 384.808 301.709C384.33 299.041 384.653 296.291 385.737 293.807C386.82 291.322 388.615 289.214 390.896 287.749C393.176 286.284 395.84 285.528 398.55 285.575C401.26 285.623 403.896 286.473 406.123 288.017C408.351 289.561 410.071 291.731 411.067 294.252C411.735 295.933 412.063 297.73 412.034 299.538C412.005 301.347 411.618 303.132 410.896 304.791C410.174 306.449 409.131 307.949 407.827 309.203C406.524 310.457 404.985 311.44 403.299 312.097V312.065Z" fill="white"/>
<path d="M408.852 248.247L379.19 263.15C374.484 265.513 370.831 269.548 368.946 274.465C367.061 279.381 367.081 284.825 369.002 289.728L383.319 326.208C385.233 331.124 388.914 335.147 393.641 337.488C398.367 339.83 403.798 340.321 408.868 338.864L440.761 329.657C443.585 328.843 446.208 327.448 448.461 325.563C450.715 323.677 452.551 321.342 453.851 318.707C455.151 316.071 455.886 313.193 456.01 310.257C456.135 307.321 455.645 304.392 454.572 301.656L438.04 259.448C436.969 256.708 435.337 254.221 433.25 252.147C431.163 250.073 428.666 248.458 425.919 247.404C423.172 246.349 420.236 245.88 417.297 246.025C414.358 246.171 411.482 246.927 408.852 248.247ZM385.518 304.329C384.529 301.804 384.311 299.042 384.892 296.392C385.473 293.743 386.826 291.325 388.78 289.444C390.735 287.564 393.203 286.305 395.873 285.827C398.543 285.349 401.295 285.674 403.78 286.76C406.266 287.845 408.374 289.644 409.837 291.927C411.301 294.211 412.055 296.877 412.003 299.589C411.952 302.301 411.098 304.936 409.548 307.163C407.999 309.389 405.825 311.106 403.3 312.097C401.622 312.757 399.831 313.08 398.029 313.047C396.227 313.014 394.449 312.625 392.797 311.904C391.145 311.182 389.652 310.142 388.402 308.842C387.153 307.542 386.173 306.009 385.518 304.329Z" fill="#4B04A0"/>
<path opacity="0.1" d="M408.852 248.247L379.19 263.15C374.484 265.513 370.831 269.548 368.946 274.465C367.061 279.381 367.081 284.825 369.002 289.728L383.319 326.208C385.233 331.124 388.914 335.147 393.641 337.488C398.367 339.83 403.798 340.321 408.868 338.864L440.761 329.657C443.585 328.843 446.208 327.448 448.461 325.563C450.715 323.677 452.551 321.342 453.851 318.707C455.151 316.071 455.886 313.193 456.01 310.257C456.135 307.321 455.645 304.392 454.572 301.656L438.04 259.448C436.969 256.708 435.337 254.221 433.25 252.147C431.163 250.073 428.666 248.458 425.919 247.404C423.172 246.349 420.236 245.88 417.297 246.025C414.358 246.171 411.482 246.927 408.852 248.247ZM385.518 304.329C384.529 301.804 384.311 299.042 384.892 296.392C385.473 293.743 386.826 291.325 388.78 289.444C390.735 287.564 393.203 286.305 395.873 285.827C398.543 285.349 401.295 285.674 403.78 286.76C406.266 287.845 408.374 289.644 409.837 291.927C411.301 294.211 412.055 296.877 412.003 299.589C411.952 302.301 411.098 304.936 409.548 307.163C407.999 309.389 405.825 311.106 403.3 312.097C401.622 312.757 399.831 313.08 398.029 313.047C396.227 313.014 394.449 312.625 392.797 311.904C391.145 311.182 389.652 310.142 388.402 308.842C387.153 307.542 386.173 306.009 385.518 304.329Z" fill="#4B04A0"/>
<path d="M556.262 234.136L555.361 235.718L554.854 236.636L553.415 239.246L554.016 245.938C554.048 246.221 554.016 246.507 553.921 246.776C553.823 247.067 553.664 247.334 553.454 247.558C553.243 247.782 552.987 247.957 552.703 248.073L540.205 252.962C539.919 253.076 539.612 253.123 539.305 253.101C538.998 253.08 538.7 252.989 538.433 252.835C538.257 252.747 538.096 252.629 537.959 252.487L530.887 245.289L520.826 249.228L522.281 252.946L512.235 256.869L514.624 262.992L507.236 265.887C506.941 266.001 506.625 266.052 506.309 266.036C505.992 266.019 505.683 265.936 505.401 265.792C505.208 265.7 505.032 265.577 504.879 265.428L500.623 261.426L490.562 265.349L492.967 271.471L482.399 275.616L484.803 281.754C484.898 281.993 484.944 282.248 484.94 282.505C484.935 282.762 484.88 283.015 484.777 283.25C484.674 283.486 484.525 283.698 484.34 283.876C484.154 284.054 483.936 284.193 483.696 284.285L454.761 295.613L442.2 263.577L546.897 222.587L548.479 223.426L553.779 226.163C554.478 226.51 555.1 226.995 555.606 227.589C556.113 228.182 556.494 228.873 556.726 229.618C556.958 230.363 557.036 231.148 556.957 231.925C556.877 232.701 556.641 233.453 556.262 234.136Z" fill="#4B04A0"/>
<g opacity="0.1">
<path d="M556.262 234.136L555.361 235.718L554.854 236.636L553.415 239.246L554.016 245.938C554.048 246.221 554.016 246.507 553.921 246.776C553.823 247.067 553.664 247.334 553.454 247.558C553.243 247.782 552.987 247.957 552.703 248.073L540.205 252.962C539.919 253.076 539.612 253.123 539.305 253.101C538.998 253.08 538.7 252.989 538.433 252.835C538.257 252.747 538.096 252.629 537.959 252.487L530.887 245.289L520.826 249.228L522.281 252.946L512.235 256.869L514.624 262.992L507.236 265.887C506.941 266.001 506.625 266.052 506.309 266.036C505.992 266.019 505.683 265.936 505.401 265.792C505.208 265.7 505.032 265.577 504.879 265.428L500.623 261.426L490.562 265.349L492.967 271.471L482.399 275.616L484.803 281.754C484.898 281.993 484.944 282.248 484.94 282.505C484.935 282.762 484.88 283.015 484.777 283.25C484.674 283.486 484.525 283.698 484.34 283.876C484.154 284.054 483.936 284.193 483.696 284.285L454.761 295.613L442.2 263.577L546.897 222.587L548.479 223.426L553.779 226.163C554.478 226.51 555.1 226.995 555.606 227.589C556.113 228.182 556.494 228.873 556.726 229.618C556.958 230.363 557.036 231.148 556.957 231.925C556.877 232.701 556.641 233.453 556.262 234.136Z" fill="white"/>
</g>
<path d="M555.852 230.529L443.909 274.35L440.65 266.124L547.372 224.343L552.688 227.064C554.713 228.108 555.867 229.073 555.852 230.529Z" fill="#4B04A0"/>
<path opacity="0.1" d="M555.852 230.529L443.909 274.35L440.65 266.124L547.372 224.343L552.688 227.064C554.713 228.108 555.867 229.073 555.852 230.529Z" fill="black"/>
<path d="M553.7 236.699L552.624 239.135C552.615 239.177 552.615 239.22 552.624 239.261L553.241 245.874C553.282 246.11 553.282 246.351 553.241 246.586C553.231 246.626 553.211 246.662 553.184 246.693C553.156 246.723 553.121 246.746 553.083 246.76L539.494 252.107C539.46 252.127 539.422 252.137 539.383 252.137C539.344 252.137 539.306 252.127 539.272 252.107C539.137 252.026 539.014 251.925 538.908 251.807L531.125 243.992C531.085 243.964 531.038 243.95 530.99 243.95C530.942 243.95 530.896 243.964 530.856 243.992L519.782 248.326C519.721 248.354 519.673 248.404 519.647 248.465C519.62 248.526 519.618 248.595 519.64 248.659L520.953 251.997C520.965 252.028 520.972 252.061 520.972 252.095C520.971 252.128 520.964 252.162 520.951 252.193C520.938 252.223 520.919 252.251 520.894 252.275C520.87 252.298 520.842 252.317 520.81 252.329L511.397 256.031C511.366 256.043 511.337 256.061 511.313 256.085C511.289 256.108 511.27 256.136 511.256 256.167C511.243 256.198 511.236 256.231 511.236 256.265C511.236 256.298 511.242 256.332 511.255 256.363L513.517 262.106C513.533 262.136 513.541 262.17 513.542 262.204C513.543 262.239 513.536 262.273 513.523 262.305C513.509 262.336 513.489 262.364 513.463 262.387C513.438 262.41 513.408 262.428 513.375 262.438L506.477 265.159C506.444 265.178 506.405 265.188 506.367 265.188C506.328 265.188 506.29 265.178 506.256 265.159C506.111 265.077 505.978 264.976 505.86 264.858L500.798 260.207C500.759 260.185 500.716 260.173 500.671 260.173C500.627 260.173 500.583 260.185 500.545 260.207L489.582 264.526C489.549 264.536 489.518 264.553 489.493 264.576C489.467 264.599 489.447 264.628 489.434 264.659C489.42 264.691 489.414 264.725 489.415 264.759C489.415 264.794 489.424 264.827 489.439 264.858L491.749 270.743C491.764 270.774 491.773 270.808 491.774 270.842C491.775 270.876 491.768 270.911 491.754 270.942C491.741 270.974 491.721 271.002 491.695 271.025C491.67 271.048 491.639 271.065 491.607 271.075L449.51 287.639C449.449 287.66 449.382 287.657 449.323 287.631C449.264 287.604 449.218 287.556 449.193 287.497L444.858 276.85C444.837 276.787 444.839 276.718 444.865 276.656C444.892 276.595 444.94 276.545 445.001 276.518L554.697 233.345C554.744 233.327 554.796 233.324 554.845 233.336C554.894 233.348 554.939 233.374 554.973 233.411C555.007 233.449 555.029 233.496 555.036 233.546C555.043 233.596 555.035 233.647 555.013 233.693L553.7 236.699Z" fill="#4B04A0"/>
<path opacity="0.1" d="M553.7 236.699L552.624 239.135C552.615 239.177 552.615 239.22 552.624 239.261L553.241 245.874C553.282 246.11 553.282 246.351 553.241 246.586C553.231 246.626 553.211 246.662 553.184 246.693C553.156 246.723 553.121 246.746 553.083 246.76L539.494 252.107C539.46 252.127 539.422 252.137 539.383 252.137C539.344 252.137 539.306 252.127 539.272 252.107C539.137 252.026 539.014 251.925 538.908 251.807L531.125 243.992C531.085 243.964 531.038 243.95 530.99 243.95C530.942 243.95 530.896 243.964 530.856 243.992L519.782 248.326C519.721 248.354 519.673 248.404 519.647 248.465C519.62 248.526 519.618 248.595 519.64 248.659L520.953 251.997C520.965 252.028 520.972 252.061 520.972 252.095C520.971 252.128 520.964 252.162 520.951 252.193C520.938 252.223 520.919 252.251 520.894 252.275C520.87 252.298 520.842 252.317 520.81 252.329L511.397 256.031C511.366 256.043 511.337 256.061 511.313 256.085C511.289 256.108 511.27 256.136 511.256 256.167C511.243 256.198 511.236 256.231 511.236 256.265C511.236 256.298 511.242 256.332 511.255 256.363L513.517 262.106C513.533 262.136 513.541 262.17 513.542 262.204C513.543 262.239 513.536 262.273 513.523 262.305C513.509 262.336 513.489 262.364 513.463 262.387C513.438 262.41 513.408 262.428 513.375 262.438L506.477 265.159C506.444 265.178 506.405 265.188 506.367 265.188C506.328 265.188 506.29 265.178 506.256 265.159C506.111 265.077 505.978 264.976 505.86 264.858L500.798 260.207C500.759 260.185 500.716 260.173 500.671 260.173C500.627 260.173 500.583 260.185 500.545 260.207L489.582 264.526C489.549 264.536 489.518 264.553 489.493 264.576C489.467 264.599 489.447 264.628 489.434 264.659C489.42 264.691 489.414 264.725 489.415 264.759C489.415 264.794 489.424 264.827 489.439 264.858L491.749 270.743C491.764 270.774 491.773 270.808 491.774 270.842C491.775 270.876 491.768 270.911 491.754 270.942C491.741 270.974 491.721 271.002 491.695 271.025C491.67 271.048 491.639 271.065 491.607 271.075L449.51 287.639C449.449 287.66 449.382 287.657 449.323 287.631C449.264 287.604 449.218 287.556 449.193 287.497L444.858 276.85C444.837 276.787 444.839 276.718 444.865 276.656C444.892 276.595 444.94 276.545 445.001 276.518L554.697 233.345C554.744 233.327 554.796 233.324 554.845 233.336C554.894 233.348 554.939 233.374 554.973 233.411C555.007 233.449 555.029 233.496 555.036 233.546C555.043 233.596 555.035 233.647 555.013 233.693L553.7 236.699Z" fill="black"/>
<path opacity="0.3" d="M392.447 283.178C389.283 284.421 386.558 286.575 384.617 289.366C382.676 292.158 381.607 295.462 381.543 298.861C381.479 302.26 382.425 305.602 384.26 308.464C386.094 311.326 388.737 313.58 391.852 314.941C394.967 316.302 398.416 316.709 401.763 316.111C405.11 315.512 408.204 313.935 410.655 311.579C413.105 309.223 414.803 306.193 415.532 302.872C416.262 299.552 415.991 296.09 414.753 292.923C413.933 290.815 412.705 288.889 411.139 287.257C409.572 285.625 407.699 284.318 405.626 283.413C403.553 282.507 401.322 282.02 399.06 281.98C396.798 281.94 394.551 282.347 392.447 283.178ZM403.299 312.129C400.773 313.119 398.01 313.338 395.36 312.757C392.709 312.177 390.291 310.824 388.409 308.869C386.528 306.913 385.269 304.444 384.792 301.773C384.314 299.103 384.639 296.35 385.726 293.864C386.813 291.378 388.613 289.27 390.898 287.807C393.183 286.345 395.85 285.592 398.563 285.646C401.276 285.699 403.912 286.556 406.137 288.107C408.363 289.659 410.079 291.836 411.067 294.363C412.381 297.745 412.302 301.51 410.846 304.834C409.39 308.158 406.677 310.77 403.299 312.097V312.129Z" fill="white"/>
<path opacity="0.1" d="M454.366 323.835C453.133 325.516 451.662 327.008 449.999 328.265L393.158 252.977C393.158 252.977 398.173 250.462 399.312 249.703C399.321 249.787 399.348 249.867 399.391 249.94C401.828 255.208 446.503 313.236 454.366 323.835Z" fill="white"/>
<path opacity="0.1" d="M446.124 330.638C445.776 330.796 429.213 335.842 429.213 335.842L410.751 311.401C413.537 308.616 415.282 304.96 415.696 301.043C416.109 297.126 415.165 293.185 413.022 289.881C410.879 286.576 407.666 284.107 403.921 282.887C400.176 281.667 396.126 281.77 392.447 283.178C391.683 283.463 390.947 283.818 390.248 284.238L373.922 262.612C373.922 262.612 388.271 255.777 389.853 254.702C390.28 257.755 446.124 330.005 446.124 330.638Z" fill="white"/>
<path d="M378.398 211.893C377.47 212.995 376.807 214.294 376.461 215.692C376.114 217.09 376.092 218.549 376.398 219.956C376.704 221.364 377.328 222.682 378.224 223.81C379.119 224.938 380.261 225.846 381.562 226.463C382.923 227.096 384.41 227.397 385.739 228.045C386.433 228.325 387.045 228.775 387.52 229.352C387.996 229.93 388.319 230.617 388.46 231.352C388.618 232.934 387.4 234.516 387.527 236.098C387.662 236.838 387.951 237.543 388.373 238.166C388.795 238.79 389.342 239.319 389.979 239.721C391.26 240.521 392.342 241.603 393.143 242.885C393.323 243.21 393.433 243.569 393.468 243.939C393.503 244.309 393.462 244.683 393.346 245.036C393.23 245.389 393.043 245.715 392.795 245.993C392.548 246.27 392.246 246.494 391.909 246.65C391.738 246.951 391.649 247.292 391.649 247.638C391.649 247.985 391.738 248.326 391.909 248.627C392.112 248.833 392.378 248.965 392.664 249.002C392.951 249.039 393.242 248.98 393.491 248.833C394.616 248.13 395.549 247.16 396.209 246.009C396.869 244.858 397.234 243.562 397.272 242.236C397.257 240.922 396.872 239.639 396.161 238.534C395.45 237.428 394.443 236.546 393.253 235.987C393.103 235.514 393.049 235.015 393.095 234.52C393.141 234.025 393.287 233.545 393.522 233.108C394.234 231.304 394.962 229.485 395.69 227.681C395.807 227.239 395.826 226.777 395.747 226.326C395.668 225.875 395.492 225.447 395.231 225.071C394.691 224.528 394.037 224.112 393.317 223.853L388.65 221.86C386.894 221.1 381.657 214.108 387.859 212.067C387.486 211.276 386.901 210.603 386.17 210.122C385.439 209.642 384.589 209.374 383.714 209.346C382.686 209.296 381.662 209.503 380.734 209.948C379.806 210.392 379.004 211.061 378.398 211.893Z" fill="#263238"/>
<path d="M386.862 204.363L386.388 209.884C387.97 207.353 390.801 202.433 390.707 202.623C389.488 203.287 388.08 203.698 386.862 204.363Z" fill="#263238"/>
<path d="M388.95 207.384L395.436 201.388C394.592 201.096 393.683 201.048 392.812 201.249C391.942 201.451 391.146 201.894 390.516 202.528C390.564 202.385 389.551 205.454 388.95 207.384Z" fill="#263238"/>
<path d="M375.773 357.057C367.34 367.53 370.141 375.551 358.497 394.092C373.194 404.976 389.299 406.748 409.311 405.166C411.684 400.974 412.87 396.607 415.243 392.415C418.629 396.623 421.35 400.151 424.735 404.375C435.224 402.793 447.69 399.771 455.98 394.424C448.655 386.024 444.099 375.535 439.416 366.281C437.217 361.93 438.135 360.111 432.297 354.416C413.709 355.27 395.279 355.713 376.706 356.583C377.212 356.662 375.282 357.026 375.773 357.057Z" fill="#154449"/>
<path d="M378.098 355.301L376.943 360.19C376.769 360.585 377.228 360.949 377.845 360.901L429.086 358.639C429.281 358.663 429.478 358.617 429.643 358.51C429.808 358.403 429.93 358.242 429.988 358.054L430.257 353.197C430.257 352.881 429.83 352.596 429.292 352.643L378.968 354.858C378.798 354.851 378.628 354.888 378.475 354.966C378.323 355.043 378.193 355.159 378.098 355.301Z" fill="#4B04A0"/>
<path d="M378.098 355.301L376.943 360.19C376.769 360.585 377.228 360.949 377.845 360.901L429.086 358.639C429.281 358.663 429.478 358.617 429.643 358.51C429.808 358.403 429.93 358.242 429.988 358.054L430.257 353.197C430.257 352.881 429.83 352.596 429.292 352.643L378.968 354.858C378.798 354.851 378.628 354.888 378.475 354.966C378.323 355.043 378.193 355.159 378.098 355.301Z" fill="#4B04A0"/>
<path d="M389.378 360.918H387.891C387.606 360.918 387.369 360.791 387.385 360.617L387.78 354.289C387.78 354.099 388.049 353.941 388.334 353.941L389.837 353.862C390.106 353.862 390.343 353.988 390.327 354.178L389.932 360.506C389.916 360.696 389.663 360.902 389.378 360.918Z" fill="#263238"/>
<path d="M426.365 359.32H424.878C424.593 359.32 424.356 359.193 424.372 359.019L424.767 352.691C424.767 352.501 425.036 352.327 425.321 352.327H426.808C427.093 352.327 427.314 352.454 427.299 352.628L426.903 358.956C426.903 359.114 426.666 359.304 426.365 359.32Z" fill="#263238"/>
<path d="M395.99 330.195C396.085 330.653 400.056 336.981 403.188 336.523C403.634 336.461 404.088 336.518 404.504 336.687C404.921 336.857 405.285 337.133 405.561 337.488C406.811 339.07 407.57 340.051 408.409 341.126C409.074 341.975 410.008 342.573 411.057 342.82C412.107 343.067 413.209 342.95 414.183 342.487C414.769 342.218 415.354 341.917 415.939 341.601C416.884 341.107 417.635 340.309 418.072 339.336C418.508 338.363 418.604 337.272 418.344 336.238C417.764 333.905 416.864 331.664 415.67 329.578C415.318 328.835 414.771 328.201 414.088 327.743C410.8 326.484 407.357 325.676 403.853 325.338C401.163 325.449 398.537 329.056 395.99 330.195Z" fill="#E8BFBF"/>
<path d="M404.011 325.148C404.011 325.148 361.962 312.413 352.881 320.893C347.55 325.876 350.065 330.59 353.055 333.549C355.27 335.811 360.095 335.257 363.259 335.131L396.386 331.872L404.011 325.148Z" fill="#E8BFBF"/>
<path d="M379.838 319.326C379.649 318.195 379.182 317.128 378.477 316.222C377.773 315.316 376.855 314.6 375.804 314.138C373.698 313.245 371.458 312.711 369.176 312.556L353.356 310.546C350.513 314.053 348.916 318.405 348.815 322.918C348.928 327.282 350.523 331.478 353.34 334.814C355.871 329.926 359.209 324.895 364.145 322.459C369.081 320.023 374.428 318.346 379.838 319.326Z" fill="#154449"/>
<path opacity="0.1" d="M369.002 242.521C369.002 242.426 369.002 242.379 369.002 242.363C369.335 242.267 369.288 242.331 369.002 242.521Z" fill="white"/>
<path d="M473.477 174.431L485.183 196.168L532.991 155.574C533.075 155.501 533.128 155.399 533.141 155.289C533.153 155.178 533.123 155.067 533.058 154.978C532.992 154.888 532.895 154.827 532.786 154.805C532.677 154.784 532.564 154.804 532.469 154.862L487.651 184.445L480.754 170.967L473.477 174.431Z" fill="#4B04A0"/>
<path d="M447.058 217.73L466.39 196.168C463.492 193.346 461.179 189.981 459.583 186.265C457.986 182.549 457.139 178.554 457.087 174.51C457.087 154.609 477.907 138.425 503.503 138.425C529.1 138.425 549.935 154.609 549.935 174.51C549.935 194.412 529.1 210.58 503.503 210.58C494.495 210.657 485.602 208.545 477.59 204.426L447.058 217.73ZM503.503 140.513C479.046 140.513 459.207 155.779 459.207 174.542C459.272 178.479 460.137 182.363 461.75 185.955C463.362 189.548 465.689 192.775 468.589 195.44L469.285 196.12L454.968 212.083L477.764 202.179L478.207 202.417C486.01 206.517 494.705 208.626 503.519 208.555C527.993 208.555 547.894 193.304 547.894 174.542C547.894 155.779 527.977 140.513 503.503 140.513Z" fill="#4B04A0"/>
</svg>
