<svg width="275" height="63" viewBox="0 0 275 63" fill="none" xmlns="http://www.w3.org/2000/svg">
<path d="M204.69 40.3589C202.981 40.3589 201.494 39.9715 200.229 39.1968C198.965 38.4106 197.985 37.3226 197.29 35.9326C196.606 34.5426 196.265 32.9362 196.265 31.1133V30.3613C196.265 28.6068 196.624 27.0402 197.341 25.6616C198.07 24.2716 199.033 23.1779 200.229 22.3804C201.437 21.5715 202.753 21.167 204.177 21.167C205.841 21.167 207.231 21.5088 208.347 22.1924C209.475 22.876 210.324 23.8387 210.894 25.0806C211.463 26.311 211.748 27.7637 211.748 29.4385V31.5405H199.751L199.7 31.626C199.722 32.8109 199.928 33.8647 200.315 34.7876C200.714 35.6991 201.283 36.4168 202.024 36.9409C202.764 37.465 203.653 37.7271 204.69 37.7271C205.829 37.7271 206.826 37.5675 207.681 37.2485C208.547 36.9181 209.293 36.4681 209.919 35.8984L211.235 38.0859C210.575 38.724 209.697 39.2651 208.604 39.7095C207.521 40.1424 206.217 40.3589 204.69 40.3589ZM199.854 28.9087H208.381V28.4644C208.381 27.5757 208.222 26.7839 207.903 26.0889C207.595 25.3825 207.128 24.8299 206.501 24.4312C205.886 24.021 205.111 23.8159 204.177 23.8159C203.425 23.8159 202.742 24.0381 202.126 24.4824C201.511 24.9154 201.004 25.5078 200.605 26.2598C200.207 27.0117 199.945 27.8662 199.819 28.8232L199.854 28.9087ZM214.346 40V37.8467L217.131 37.3682V24.1577L214.346 23.6792V21.5088H220.139L220.43 23.8672L220.464 24.1919C220.988 23.2463 221.632 22.5057 222.395 21.9702C223.17 21.4347 224.053 21.167 225.044 21.167C225.397 21.167 225.756 21.2012 226.121 21.2695C226.497 21.3265 226.764 21.3835 226.924 21.4404L226.479 24.5679L224.138 24.4312C223.25 24.3742 222.503 24.5793 221.899 25.0464C221.296 25.5021 220.828 26.1174 220.498 26.8921V37.3682L223.284 37.8467V40H214.346ZM236.46 40.3589C235.218 40.3589 234.056 40.2336 232.974 39.9829C231.891 39.7323 230.741 39.3449 229.521 38.8208L229.487 34.4287H232.034L232.666 37.0776C233.304 37.3397 233.919 37.5334 234.512 37.6587C235.116 37.7726 235.765 37.8296 236.46 37.8296C237.827 37.8296 238.807 37.5675 239.399 37.0435C239.992 36.5194 240.288 35.87 240.288 35.0952C240.288 34.366 239.986 33.7508 239.382 33.2495C238.79 32.7368 237.708 32.3039 236.135 31.9507C233.902 31.438 232.256 30.7544 231.196 29.8999C230.148 29.034 229.624 27.8833 229.624 26.4478C229.624 25.4451 229.915 24.5508 230.496 23.7646C231.077 22.9671 231.886 22.3348 232.922 21.8677C233.959 21.4006 235.167 21.167 236.545 21.167C237.947 21.167 239.143 21.3265 240.134 21.6455C241.137 21.9645 242.008 22.3918 242.749 22.9272L242.92 27.1484H240.391L239.844 24.6875C239.445 24.3913 238.972 24.1634 238.425 24.0039C237.878 23.8444 237.252 23.7646 236.545 23.7646C235.497 23.7646 234.643 24.0096 233.982 24.4995C233.333 24.9894 233.008 25.6047 233.008 26.3452C233.008 26.7782 233.099 27.1541 233.281 27.4731C233.475 27.7922 233.84 28.0827 234.375 28.3447C234.91 28.5954 235.697 28.846 236.733 29.0967C239.308 29.7005 241.103 30.4696 242.117 31.4038C243.142 32.3381 243.655 33.4888 243.655 34.856C243.655 36.4168 243.074 37.7271 241.912 38.7866C240.761 39.8348 238.944 40.3589 236.46 40.3589ZM254.866 40.3589C253.157 40.3589 251.67 39.9715 250.405 39.1968C249.141 38.4106 248.161 37.3226 247.466 35.9326C246.782 34.5426 246.44 32.9362 246.44 31.1133V30.3613C246.44 28.6068 246.799 27.0402 247.517 25.6616C248.246 24.2716 249.209 23.1779 250.405 22.3804C251.613 21.5715 252.929 21.167 254.353 21.167C256.016 21.167 257.406 21.5088 258.523 22.1924C259.651 22.876 260.5 23.8387 261.069 25.0806C261.639 26.311 261.924 27.7637 261.924 29.4385V31.5405H249.927L249.875 31.626C249.898 32.8109 250.103 33.8647 250.491 34.7876C250.889 35.6991 251.459 36.4168 252.2 36.9409C252.94 37.465 253.829 37.7271 254.866 37.7271C256.005 37.7271 257.002 37.5675 257.856 37.2485C258.722 36.9181 259.469 36.4681 260.095 35.8984L261.411 38.0859C260.75 38.724 259.873 39.2651 258.779 39.7095C257.697 40.1424 256.392 40.3589 254.866 40.3589ZM250.029 28.9087H258.557V28.4644C258.557 27.5757 258.398 26.7839 258.079 26.0889C257.771 25.3825 257.304 24.8299 256.677 24.4312C256.062 24.021 255.287 23.8159 254.353 23.8159C253.601 23.8159 252.917 24.0381 252.302 24.4824C251.687 24.9154 251.18 25.5078 250.781 26.2598C250.382 27.0117 250.12 27.8662 249.995 28.8232L250.029 28.9087Z" fill="white"/>
<path d="M0.315 23.075V21.36H0.49C1.19 21.36 1.785 21.3133 2.275 21.22C2.78833 21.1033 3.17333 20.905 3.43 20.625C3.68667 20.345 3.82667 19.96 3.85 19.47L5.985 21.185H11.865V23.075H0.315ZM6.65 33.05C6.65 34.0767 6.77833 34.905 7.035 35.535C7.29167 36.165 7.665 36.6317 8.155 36.935C8.645 37.215 9.205 37.355 9.835 37.355C10.3483 37.355 10.815 37.3083 11.235 37.215C11.655 37.0983 12.005 37.005 12.285 36.935V38.825C12.075 38.9183 11.8183 39 11.515 39.07C11.235 39.1633 10.9317 39.2333 10.605 39.28C10.2783 39.3267 9.91667 39.35 9.52 39.35C8.49333 39.35 7.51333 39.1633 6.58 38.79C5.67 38.4167 4.935 37.775 4.375 36.865C3.815 35.955 3.535 34.695 3.535 33.085V21.64L3.815 21.43L3.85 16.32H6.65V33.05ZM17.4407 30.25C17.4407 31.37 17.5807 32.385 17.8607 33.295C18.164 34.205 18.584 34.975 19.1207 35.605C19.6807 36.2117 20.3223 36.6783 21.0457 37.005C21.769 37.3083 22.5507 37.46 23.3907 37.46C24.3473 37.46 25.1757 37.285 25.8757 36.935C26.5757 36.5617 27.159 36.095 27.6257 35.535C28.1157 34.975 28.5357 34.4267 28.8857 33.89L30.4257 35.255C29.9823 36.025 29.434 36.725 28.7807 37.355C28.1273 37.9617 27.3457 38.4517 26.4357 38.825C25.549 39.175 24.5107 39.35 23.3207 39.35C21.6173 39.35 20.0773 38.9767 18.7007 38.23C17.3473 37.4833 16.2623 36.4217 15.4457 35.045C14.6523 33.6683 14.2557 32.0467 14.2557 30.18C14.2557 28.3133 14.629 26.6917 15.3757 25.315C16.1223 23.915 17.1373 22.8183 18.4207 22.025C19.704 21.2317 21.1273 20.835 22.6907 20.835C23.974 20.835 25.094 21.045 26.0507 21.465C27.0073 21.885 27.8123 22.5033 28.4657 23.32C29.1423 24.1367 29.6557 25.1633 30.0057 26.4C30.3557 27.6367 30.5307 29.0833 30.5307 30.74H16.7757V28.885H28.2207L27.2407 29.62C27.2173 28.4533 27.1123 27.4383 26.9257 26.575C26.739 25.7117 26.459 25 26.0857 24.44C25.7123 23.8567 25.2457 23.425 24.6857 23.145C24.1257 22.865 23.4607 22.725 22.6907 22.725C21.9673 22.725 21.279 22.9 20.6257 23.25C19.9957 23.5767 19.4357 24.0667 18.9457 24.72C18.479 25.3733 18.1057 26.1667 17.8257 27.1C17.569 28.0333 17.4407 29.0833 17.4407 30.25ZM42.9455 37.46C43.9955 37.46 44.8939 37.2733 45.6405 36.9C46.3872 36.5033 47.0172 36.0133 47.5305 35.43C48.0672 34.8467 48.5222 34.275 48.8955 33.715L50.3655 35.115C49.8522 35.885 49.2455 36.5967 48.5455 37.25C47.8689 37.9033 47.0639 38.4167 46.1305 38.79C45.1972 39.1633 44.1005 39.35 42.8405 39.35C41.0205 39.35 39.4105 38.9533 38.0105 38.16C36.6339 37.3667 35.5605 36.2817 34.7905 34.905C34.0205 33.505 33.6355 31.895 33.6355 30.075C33.6355 28.2317 34.0322 26.6217 34.8255 25.245C35.6422 23.8683 36.7622 22.795 38.1855 22.025C39.6322 21.2317 41.3005 20.835 43.1905 20.835C44.3339 20.835 45.3605 20.9633 46.2705 21.22C47.1805 21.4767 47.9505 21.78 48.5805 22.13C49.2105 22.48 49.6889 22.8067 50.0155 23.11V27.345H46.9705V23.39C47.2039 23.4367 47.4255 23.5183 47.6355 23.635C47.8455 23.7283 48.0205 23.8683 48.1605 24.055C48.3239 24.2183 48.4405 24.4167 48.5105 24.65C48.5805 24.8833 48.5922 25.1517 48.5455 25.455C48.1255 24.6617 47.4139 24.0083 46.4105 23.495C45.4305 22.9817 44.3572 22.725 43.1905 22.725C41.8139 22.725 40.6589 23.04 39.7255 23.67C38.7922 24.3 38.0922 25.175 37.6255 26.295C37.1589 27.3917 36.9255 28.6517 36.9255 30.075C36.9255 31.1717 37.0539 32.175 37.3105 33.085C37.5905 33.995 37.9872 34.7767 38.5005 35.43C39.0139 36.0833 39.6439 36.585 40.3905 36.935C41.1372 37.285 41.9889 37.46 42.9455 37.46ZM58.8596 13.205V37.145C58.8596 37.215 58.9879 37.285 59.2446 37.355C59.5246 37.4017 59.8629 37.4367 60.2596 37.46C60.6563 37.4833 61.0296 37.495 61.3796 37.495H61.4496V39H52.7696V37.495H52.8396C53.3996 37.495 53.8896 37.46 54.3096 37.39C54.7529 37.32 55.1029 37.1917 55.3596 37.005C55.6163 36.8183 55.7446 36.5617 55.7446 36.235V16.39C55.7446 16.04 55.6513 15.7717 55.4646 15.585C55.2779 15.3983 54.9979 15.2467 54.6246 15.13C54.2513 15.0133 53.7613 14.9083 53.1546 14.815L52.7696 14.745V13.205H58.8596ZM73.2096 39H64.5996V37.495H64.6346C64.9613 37.495 65.3229 37.4833 65.7196 37.46C66.1163 37.4367 66.4546 37.4017 66.7346 37.355C67.0379 37.285 67.1896 37.215 67.1896 37.145V26.785C67.1896 25.8983 67.0963 25.175 66.9096 24.615C66.7229 24.0317 66.4079 23.6117 65.9646 23.355C65.5213 23.075 64.9379 22.935 64.2146 22.935C63.3979 22.935 62.6396 23.0867 61.9396 23.39C61.2396 23.6933 60.5863 24.16 59.9796 24.79C59.3963 25.3967 58.8129 26.1317 58.2296 26.995L58.1596 24.825C58.8129 23.915 59.4546 23.1683 60.0846 22.585C60.7379 22.0017 61.4379 21.57 62.1846 21.29C62.9546 20.9867 63.8063 20.835 64.7396 20.835C65.8596 20.835 66.8396 21.0333 67.6796 21.43C68.5196 21.8267 69.1613 22.445 69.6046 23.285C70.0713 24.1017 70.3046 25.1633 70.3046 26.47V36.235C70.3046 36.7483 70.5729 37.0867 71.1096 37.25C71.6696 37.4133 72.3579 37.495 73.1746 37.495H73.2096V39ZM86.564 34.415C86.564 33.925 86.4357 33.5167 86.179 33.19C85.9224 32.84 85.5724 32.56 85.129 32.35C84.6857 32.1167 84.184 31.93 83.624 31.79C83.0874 31.6267 82.5157 31.4633 81.909 31.3C81.1857 31.1133 80.4624 30.9033 79.739 30.67C79.039 30.4367 78.3974 30.1333 77.814 29.76C77.254 29.3633 76.799 28.8617 76.449 28.255C76.099 27.6483 75.924 26.89 75.924 25.98C75.924 24.9533 76.169 24.055 76.659 23.285C77.1724 22.515 77.9074 21.92 78.864 21.5C79.844 21.0567 81.0224 20.835 82.399 20.835C83.449 20.835 84.3707 20.9167 85.164 21.08C85.9574 21.2433 86.6224 21.4533 87.159 21.71C87.6957 21.9433 88.0924 22.165 88.349 22.375V26.12H85.374V22.795C85.6307 22.795 85.8407 22.8417 86.004 22.935C86.1907 23.0283 86.3307 23.1567 86.424 23.32C86.5174 23.46 86.5757 23.635 86.599 23.845C86.6457 24.055 86.634 24.2767 86.564 24.51C86.3074 24.1133 85.969 23.7867 85.549 23.53C85.129 23.25 84.6507 23.0517 84.114 22.935C83.6007 22.795 83.029 22.725 82.399 22.725C81.1624 22.725 80.2407 22.9933 79.634 23.53C79.0274 24.0667 78.724 24.7433 78.724 25.56C78.724 26.0967 78.8524 26.5517 79.109 26.925C79.389 27.275 79.7507 27.5667 80.194 27.8C80.6607 28.01 81.1857 28.1967 81.769 28.36C82.3524 28.5233 82.959 28.6867 83.589 28.85C84.289 29.0133 84.9774 29.2233 85.654 29.48C86.354 29.7133 86.984 30.0167 87.544 30.39C88.1274 30.7633 88.5824 31.2417 88.909 31.825C89.259 32.4083 89.434 33.1317 89.434 33.995C89.434 35.0217 89.154 35.9433 88.594 36.76C88.034 37.5533 87.229 38.1833 86.179 38.65C85.1524 39.1167 83.9157 39.35 82.469 39.35C81.349 39.35 80.334 39.2567 79.424 39.07C78.5374 38.9067 77.744 38.6733 77.044 38.37C76.344 38.0667 75.7257 37.74 75.189 37.39V33.435H78.234V37.845C77.9074 37.635 77.6507 37.4367 77.464 37.25C77.2774 37.04 77.149 36.8417 77.079 36.655C77.009 36.445 76.9857 36.235 77.009 36.025C77.0324 35.815 77.079 35.605 77.149 35.395C77.5457 35.8617 78.0007 36.2467 78.514 36.55C79.0507 36.8533 79.6457 37.0867 80.299 37.25C80.9524 37.39 81.664 37.46 82.434 37.46C83.274 37.46 83.9974 37.3433 84.604 37.11C85.234 36.8533 85.7124 36.5033 86.039 36.06C86.389 35.5933 86.564 35.045 86.564 34.415ZM90.9254 23.075V21.36H91.1004C91.8004 21.36 92.3954 21.3133 92.8854 21.22C93.3987 21.1033 93.7837 20.905 94.0404 20.625C94.297 20.345 94.437 19.96 94.4604 19.47L96.5954 21.185H102.475V23.075H90.9254ZM97.2604 33.05C97.2604 34.0767 97.3887 34.905 97.6454 35.535C97.902 36.165 98.2754 36.6317 98.7654 36.935C99.2554 37.215 99.8154 37.355 100.445 37.355C100.959 37.355 101.425 37.3083 101.845 37.215C102.265 37.0983 102.615 37.005 102.895 36.935V38.825C102.685 38.9183 102.429 39 102.125 39.07C101.845 39.1633 101.542 39.2333 101.215 39.28C100.889 39.3267 100.527 39.35 100.13 39.35C99.1037 39.35 98.1237 39.1633 97.1904 38.79C96.2804 38.4167 95.5454 37.775 94.9854 36.865C94.4254 35.955 94.1454 34.695 94.1454 33.085V21.64L94.4254 21.43L94.4604 16.32H97.2604V33.05ZM108.051 30.25C108.051 31.37 108.191 32.385 108.471 33.295C108.774 34.205 109.194 34.975 109.731 35.605C110.291 36.2117 110.933 36.6783 111.656 37.005C112.379 37.3083 113.161 37.46 114.001 37.46C114.958 37.46 115.786 37.285 116.486 36.935C117.186 36.5617 117.769 36.095 118.236 35.535C118.726 34.975 119.146 34.4267 119.496 33.89L121.036 35.255C120.593 36.025 120.044 36.725 119.391 37.355C118.738 37.9617 117.956 38.4517 117.046 38.825C116.159 39.175 115.121 39.35 113.931 39.35C112.228 39.35 110.688 38.9767 109.311 38.23C107.958 37.4833 106.873 36.4217 106.056 35.045C105.263 33.6683 104.866 32.0467 104.866 30.18C104.866 28.3133 105.239 26.6917 105.986 25.315C106.733 23.915 107.748 22.8183 109.031 22.025C110.314 21.2317 111.738 20.835 113.301 20.835C114.584 20.835 115.704 21.045 116.661 21.465C117.618 21.885 118.423 22.5033 119.076 23.32C119.753 24.1367 120.266 25.1633 120.616 26.4C120.966 27.6367 121.141 29.0833 121.141 30.74H107.386V28.885H118.831L117.851 29.62C117.828 28.4533 117.723 27.4383 117.536 26.575C117.349 25.7117 117.069 25 116.696 24.44C116.323 23.8567 115.856 23.425 115.296 23.145C114.736 22.865 114.071 22.725 113.301 22.725C112.578 22.725 111.889 22.9 111.236 23.25C110.606 23.5767 110.046 24.0667 109.556 24.72C109.089 25.3733 108.716 26.1667 108.436 27.1C108.179 28.0333 108.051 29.0833 108.051 30.25ZM136.011 20.94V24.02C135.847 23.95 135.649 23.9033 135.416 23.88C135.206 23.8333 134.984 23.7983 134.751 23.775C134.517 23.7517 134.284 23.74 134.051 23.74C133.444 23.74 132.907 23.8333 132.441 24.02C131.974 24.1833 131.554 24.44 131.181 24.79C130.831 25.14 130.504 25.5833 130.201 26.12C129.921 26.6567 129.606 27.2867 129.256 28.01L129.221 25.84C129.571 24.8367 130.014 23.9617 130.551 23.215C131.087 22.4683 131.706 21.885 132.406 21.465C133.106 21.045 133.911 20.835 134.821 20.835C135.054 20.835 135.276 20.8467 135.486 20.87C135.719 20.87 135.894 20.8933 136.011 20.94ZM123.761 39V37.495H123.831C124.671 37.495 125.359 37.4133 125.896 37.25C126.432 37.0867 126.701 36.7483 126.701 36.235V24.37C126.701 24.02 126.607 23.7633 126.421 23.6C126.234 23.4133 125.942 23.2617 125.546 23.145C125.172 23.0283 124.706 22.9117 124.146 22.795L123.761 22.725V21.185H129.501V26.295L129.816 25.98V36.375C129.816 36.7017 129.979 36.9467 130.306 37.11C130.632 37.2733 131.017 37.3783 131.461 37.425C131.904 37.4717 132.301 37.495 132.651 37.495H133.281V39H123.761Z" fill="white"/>
<circle cx="166" cy="27" r="27" fill="white"/>
<path d="M178.955 13.1855C179.622 13.1855 179.956 13.5355 179.956 14.2354C179.956 14.5934 179.842 15.0085 179.614 15.4805C179.403 15.9362 179.232 16.3105 179.102 16.6035L165.845 49.3428L149.78 13.4541H163.11L170.874 31.7158L176.318 18.0928C176.904 16.6279 177.287 15.57 177.466 14.9189C177.645 14.2679 177.84 13.8203 178.052 13.5762C178.263 13.3158 178.564 13.1855 178.955 13.1855Z" fill="#4B04A0"/>
<circle cx="270" cy="37" r="5" fill="url(#paint0_linear_2208_158)"/>
<defs>
<linearGradient id="paint0_linear_2208_158" x1="270" y1="32" x2="270" y2="42" gradientUnits="userSpaceOnUse">
<stop stop-color="white"/>
<stop offset="1" stop-color="white"/>
</linearGradient>
</defs>
</svg>
