<svg width="33" height="33" viewBox="0 0 33 33" fill="none" xmlns="http://www.w3.org/2000/svg">
<g id="Twitter">
<rect width="33" height="33" fill="#F7F9FB"/>
<path id="Vector" d="M31.7123 7.05762C30.5908 7.55391 29.392 7.88906 28.1287 8.04375C29.4178 7.27031 30.4104 6.0457 30.8744 4.58906C29.6691 5.30449 28.335 5.82656 26.9105 6.10371C25.7697 4.88555 24.1455 4.125 22.3537 4.125C18.9055 4.125 16.1146 6.92227 16.1146 10.3705C16.1146 10.8604 16.1662 11.3373 16.2758 11.7949C11.0873 11.5371 6.48535 9.04922 3.41094 5.26582C2.87598 6.1875 2.5666 7.26387 2.5666 8.40469C2.5666 10.5703 3.6752 12.4846 5.35098 13.6061C4.31973 13.5803 3.35293 13.2967 2.51504 12.8262V12.9035C2.51504 15.9328 4.66777 18.4529 7.52305 19.0266C7.00098 19.1684 6.44668 19.2457 5.87949 19.2457C5.47988 19.2457 5.08672 19.207 4.70645 19.1297C5.49922 21.6111 7.80664 23.4158 10.5395 23.4674C8.40605 25.1432 5.71191 26.1422 2.78574 26.1422C2.28301 26.1422 1.78672 26.11 1.29688 26.052C4.04902 27.8438 7.32969 28.875 10.8488 28.875C22.3408 28.875 28.6186 19.3553 28.6186 11.0988C28.6186 10.8281 28.6121 10.5574 28.5992 10.2932C29.8174 9.41016 30.8744 8.31445 31.7123 7.05762Z" fill="#154449"/>
</g>
</svg>
