<svg width="82" height="533" viewBox="0 0 82 533" fill="none" xmlns="http://www.w3.org/2000/svg">
<path d="M29.1567 57.4172L-30.7113 102.984L-33.2887 104.984L-81 43.4419L-69.3753 34.4316L-30.6165 84.4234L20.2454 45.7141L29.1567 57.4172Z" stroke="#24292E" stroke-width="0.8" stroke-miterlimit="10"/>
<path d="M72.2044 72.2124L60.5467 81.1856L21.9611 31.0577L-17.4162 60.8144L-29.1316 69.5691L-76.9131 10.2082L-65.4409 1L-26.6286 49.3381L22.1591 12.468L22.2251 12.4186L24.7034 10.5093L72.2044 72.2124Z" stroke="#24292E" stroke-width="0.8" stroke-miterlimit="10"/>
<path d="M31.9488 66.1387L21.9364 74.0315L21.8457 73.916L31.9488 66.1387Z" stroke="#24292E" stroke-width="0.8" stroke-miterlimit="10"/>
<path d="M80.9999 126.646L69.3422 135.62L30.9092 85.6898L-18.8888 124.952L-27.998 113.397L21.936 74.032L31.9483 66.1392L33.1648 65.2032L33.503 64.9434L80.9999 126.646Z" stroke="#24292E" stroke-width="0.8" stroke-miterlimit="10"/>
<path d="M33.1647 65.2018L31.9482 66.1379L33.1524 65.1895L33.1647 65.2018Z" stroke="#24292E" stroke-width="0.8" stroke-miterlimit="10"/>
<path d="M29.1567 156.417L-30.7113 201.984L-33.2887 203.984L-81 142.442L-69.3753 133.432L-30.6165 183.423L20.2454 144.714L29.1567 156.417Z" stroke="#24292E" stroke-width="0.8" stroke-miterlimit="10"/>
<path d="M72.2044 171.212L60.5467 180.186L21.9611 130.058L-17.4162 159.814L-29.1316 168.569L-76.9131 109.208L-65.4409 100L-26.6286 148.338L22.1591 111.468L22.2251 111.419L24.7034 109.509L72.2044 171.212Z" stroke="#24292E" stroke-width="0.8" stroke-miterlimit="10"/>
<path d="M31.9488 165.139L21.9364 173.031L21.8457 172.916L31.9488 165.139Z" stroke="#24292E" stroke-width="0.8" stroke-miterlimit="10"/>
<path d="M80.9999 225.646L69.3422 234.62L30.9092 184.69L-18.8888 223.952L-27.998 212.397L21.936 173.032L31.9483 165.139L33.1648 164.203L33.503 163.943L80.9999 225.646Z" stroke="#24292E" stroke-width="0.8" stroke-miterlimit="10"/>
<path d="M33.1647 164.202L31.9482 165.138L33.1524 164.189L33.1647 164.202Z" stroke="#24292E" stroke-width="0.8" stroke-miterlimit="10"/>
<path d="M29.1567 255.417L-30.7113 300.984L-33.2887 302.984L-81 241.442L-69.3753 232.432L-30.6165 282.423L20.2454 243.714L29.1567 255.417Z" stroke="#24292E" stroke-width="0.8" stroke-miterlimit="10"/>
<path d="M72.2044 270.212L60.5467 279.186L21.9611 229.058L-17.4162 258.814L-29.1316 267.569L-76.9131 208.208L-65.4409 199L-26.6286 247.338L22.1591 210.468L22.2251 210.419L24.7034 208.509L72.2044 270.212Z" stroke="#24292E" stroke-width="0.8" stroke-miterlimit="10"/>
<path d="M31.9488 264.139L21.9364 272.031L21.8457 271.916L31.9488 264.139Z" stroke="#24292E" stroke-width="0.8" stroke-miterlimit="10"/>
<path d="M80.9999 324.646L69.3422 333.62L30.9092 283.69L-18.8888 322.952L-27.998 311.397L21.936 272.032L31.9483 264.139L33.1648 263.203L33.503 262.943L80.9999 324.646Z" stroke="#24292E" stroke-width="0.8" stroke-miterlimit="10"/>
<path d="M33.1647 263.202L31.9482 264.138L33.1524 263.189L33.1647 263.202Z" stroke="#24292E" stroke-width="0.8" stroke-miterlimit="10"/>
<path d="M29.1567 354.417L-30.7113 399.984L-33.2887 401.984L-81 340.442L-69.3753 331.432L-30.6165 381.423L20.2454 342.714L29.1567 354.417Z" stroke="#24292E" stroke-width="0.8" stroke-miterlimit="10"/>
<path d="M72.2044 369.212L60.5467 378.186L21.9611 328.058L-17.4162 357.814L-29.1316 366.569L-76.9131 307.208L-65.4409 298L-26.6286 346.338L22.1591 309.468L22.2251 309.419L24.7034 307.509L72.2044 369.212Z" stroke="#24292E" stroke-width="0.8" stroke-miterlimit="10"/>
<path d="M31.9488 363.139L21.9364 371.031L21.8457 370.916L31.9488 363.139Z" stroke="#24292E" stroke-width="0.8" stroke-miterlimit="10"/>
<path d="M80.9999 423.646L69.3422 432.62L30.9092 382.69L-18.8888 421.952L-27.998 410.397L21.936 371.032L31.9483 363.139L33.1648 362.203L33.503 361.943L80.9999 423.646Z" stroke="#24292E" stroke-width="0.8" stroke-miterlimit="10"/>
<path d="M33.1647 362.202L31.9482 363.138L33.1524 362.189L33.1647 362.202Z" stroke="#24292E" stroke-width="0.8" stroke-miterlimit="10"/>
<path d="M29.1567 453.417L-30.7113 498.984L-33.2887 500.984L-81 439.442L-69.3753 430.432L-30.6165 480.423L20.2454 441.714L29.1567 453.417Z" stroke="#24292E" stroke-width="0.8" stroke-miterlimit="10"/>
<path d="M72.2044 468.212L60.5467 477.186L21.9611 427.058L-17.4162 456.814L-29.1316 465.569L-76.9131 406.208L-65.4409 397L-26.6286 445.338L22.1591 408.468L22.2251 408.419L24.7034 406.509L72.2044 468.212Z" stroke="#24292E" stroke-width="0.8" stroke-miterlimit="10"/>
<path d="M31.9488 462.139L21.9364 470.031L21.8457 469.916L31.9488 462.139Z" stroke="#24292E" stroke-width="0.8" stroke-miterlimit="10"/>
<path d="M80.9999 522.646L69.3422 531.62L30.9092 481.69L-18.8888 520.952L-27.998 509.397L21.936 470.032L31.9483 462.139L33.1648 461.203L33.503 460.943L80.9999 522.646Z" stroke="#24292E" stroke-width="0.8" stroke-miterlimit="10"/>
<path d="M33.1647 461.202L31.9482 462.138L33.1524 461.189L33.1647 461.202Z" stroke="#24292E" stroke-width="0.8" stroke-miterlimit="10"/>
</svg>
